<?xml version="1.0" encoding="utf-8"?>
<!-- Generator: Adobe Illustrator 23.0.1, SVG Export Plug-In . SVG Version: 6.00 Build 0)  -->
<svg version="1.1" id="Layer_1" xmlns="http://www.w3.org/2000/svg" xmlns:xlink="http://www.w3.org/1999/xlink" x="0px" y="0px"
	 viewBox="0 0 125 50" style="enable-background:new 0 0 125 50;" xml:space="preserve">
<style type="text/css">
	.st0{fill:#4E4E4E;}
	.st1{fill:#686868;}
	.st2{fill:#B2B2B2;}
</style>
<path class="st0" d="M41.8,21.8V5.3c0-2.2-1.8-4-4-4H6.7c-2.2,0-4,1.8-4,4v16.5l2.7,2.7l-2.7,2.7v17.5c0,2.2,1.8,4,4,4h31.1
	c2.2,0,4-1.8,4-4V27.2l-2.7-2.7L41.8,21.8z"/>
<path class="st0" d="M82.6,21.8V5.3c0-2.2-1.8-4-4-4H47.4c-2.2,0-4,1.8-4,4v16.5l2.7,2.7l-2.7,2.7v17.5c0,2.2,1.8,4,4,4h31.1
	c2.2,0,4-1.8,4-4V27.2l-2.7-2.7L82.6,21.8z"/>
<path class="st0" d="M123.3,5.3c0-2.2-1.8-4-4-4H88.2c-2.2,0-4,1.8-4,4v16.5l2.7,2.7l-2.7,2.7v17.5c0,2.2,1.8,4,4,4h31.1
	c2.2,0,4-1.8,4-4V27.2l-2.7-2.7l2.7-2.7V5.3z"/>
<polygon class="st1" points="40.5,26 3.9,26 5.4,24.5 3.9,23 40.5,23 39,24.5 "/>
<polygon class="st1" points="81.4,26 44.9,26 46.4,24.5 44.9,23 81.4,23 80,24.5 "/>
<polygon class="st1" points="122.1,26 85.5,26 87,24.5 85.5,23 122.1,23 120.6,24.5 "/>
<g>
	<path class="st2" d="M11.4,7.2h0.1c0.1,0,1.4,1.3,4,4v10.6c0,0.1-1,1.1-3.1,3.1c-0.1,0-0.4-0.3-1-1V7.2z M12.4,25.9
		c0.1,0,1.1,1,3.1,3.1v10.6c-2.3,2.5-3.7,3.9-4,4.1h-0.1V26.9C11.4,26.9,11.7,26.5,12.4,25.9z M12.4,7h16.8c0.1,0,0.4,0.3,1,1
		c0,0.1-1,1.1-3.1,3.1H16.5c-2.5-2.3-3.9-3.7-4.1-4V7z M16.4,39.8H27c0.1,0,1.1,1,3.1,3.1c0,0.1-0.3,0.4-1,1H12.5v-0.1
		C14.8,41.4,16.1,40.1,16.4,39.8z M31.1,8c0.1,0,0.4,0.3,1,1v14.7c0,0.1-0.3,0.4-1,1c-0.1,0-1.1-1-3.1-3.1V11.1
		C28,11,29.1,10,31.1,8z M31.1,26c0.1,0,0.4,0.3,1,1v14.7c0,0.1-0.3,0.4-1,1c-0.1,0-1.1-1-3.1-3.1V29.1C28,29,29.1,28,31.1,26z"/>
	<path class="st2" d="M53.8,8.1c0.1,0,1.1,1,3.1,3.1v10.6c0,0.1-1,1.1-3.1,3.1c-0.1,0-0.4-0.3-1-1V9.1C52.8,9,53.2,8.7,53.8,8.1z
		 M53.8,25.9c0.1,0,1.1,1,3.1,3.1v10.6c0,0.1-1,1.1-3.1,3.1c-0.1,0-0.4-0.3-1-1V26.9C52.8,26.9,53.2,26.5,53.8,25.9z M57.9,39.8
		h10.6c0.1,0,1.1,1,3.1,3.1c0,0.1-0.3,0.4-1,1H55.8c-0.1,0-0.4-0.3-1-1C54.8,42.8,55.8,41.8,57.9,39.8z M55.9,7h14.7
		c0.1,0,0.4,0.3,1,1c0,0.1-1,1.1-3.1,3.1H58c-0.1,0-1.1-1-3.1-3.1C54.9,7.9,55.2,7.6,55.9,7z M57,23.2h12.2c0.1,0,0.8,0.7,2.1,2.1
		v0.1c0,0.1-0.7,0.8-2.1,2.1H57c-0.1,0-0.8-0.7-2.1-2.1v-0.1C54.9,25.2,55.6,24.5,57,23.2z"/>
	<path class="st2" d="M95.3,7c0.1,0,1.1,1,3.1,3.1v11.8c0,0.1-1,1.1-3.1,3.1c-0.1,0-0.4-0.3-1-1V8C94.3,7.9,94.6,7.6,95.3,7z
		 M95.3,25.9c0.1,0,1.1,1,3.1,3.1v11.8c0,0.1-1,1.1-3.1,3.1c-0.1,0-0.4-0.3-1-1V26.9C94.3,26.9,94.6,26.5,95.3,25.9z M99.5,11.2h1.2
		c1.3,1.1,3.6,3.3,6.8,6.7c0.2,0,0.9,0.7,2.2,2.1v4.1c0,0.1-0.1,0.2-0.2,0.2h-1.2c-0.1,0-0.1,0-0.1-0.1l-0.2,0.1
		c-3-3.1-5.8-6-8.7-8.8v-4.1C99.3,11.3,99.4,11.2,99.5,11.2z M114,7c0.1,0,0.4,0.3,1,1v15.9c0,0.1-0.3,0.4-1,1c-0.1,0-1.1-1-3.1-3.1
		V10.1C110.9,10,112,8.9,114,7z M114,25.9c0.1,0,0.4,0.3,1,1v15.9c0,0.1-0.3,0.4-1,1c-0.1,0-1.1-1-3.1-3.1V29
		C110.9,28.9,112,27.9,114,25.9z"/>
</g>
</svg>
