<?xml version="1.0" encoding="utf-8"?>
<!-- Generator: Adobe Illustrator 23.0.1, SVG Export Plug-In . SVG Version: 6.00 Build 0)  -->
<svg version="1.1" id="Layer_1" xmlns="http://www.w3.org/2000/svg" xmlns:xlink="http://www.w3.org/1999/xlink" x="0px" y="0px"
	 viewBox="0 0 125 50" style="enable-background:new 0 0 125 50;" xml:space="preserve">
<style type="text/css">
	.st0{fill:#53495A;}
	.st1{fill:#473D4F;}
	.st2{fill:#EFEAF4;}
	.st3{opacity:0.15;fill:#473D4F;}
</style>
<path class="st0" d="M41.8,21.8V5.3c0-2.2-1.8-4-4-4H6.7c-2.2,0-4,1.8-4,4v16.5l2.7,2.7l-2.7,2.7v17.5c0,2.2,1.8,4,4,4h31.1
	c2.2,0,4-1.8,4-4V27.2l-2.7-2.7L41.8,21.8z"/>
<path class="st0" d="M82.6,21.8V5.3c0-2.2-1.8-4-4-4H47.4c-2.2,0-4,1.8-4,4v16.5l2.7,2.7l-2.7,2.7v17.5c0,2.2,1.8,4,4,4h31.1
	c2.2,0,4-1.8,4-4V27.2l-2.7-2.7L82.6,21.8z"/>
<path class="st0" d="M123.3,5.3c0-2.2-1.8-4-4-4H88.2c-2.2,0-4,1.8-4,4v16.5l2.7,2.7l-2.7,2.7v17.5c0,2.2,1.8,4,4,4h31.1
	c2.2,0,4-1.8,4-4V27.2l-2.7-2.7l2.7-2.7V5.3z"/>
<polygon class="st1" points="40.5,26 3.9,26 5.4,24.5 3.9,23 40.5,23 39,24.5 "/>
<polygon class="st1" points="81.4,26 44.9,26 46.4,24.5 44.9,23 81.4,23 80,24.5 "/>
<polygon class="st1" points="122.1,26 85.5,26 87,24.5 85.5,23 122.1,23 120.6,24.5 "/>
<g>
	<path class="st2" d="M11.5,9.2h8.4c10,0,15.4,5.4,15.4,16.1c0,10.8-6.4,16.1-15.4,16.1h-8.4V9.2z M17.4,36.8h2
		c6.6,0,9.6-4.5,9.6-11.5c0-7-3-11.5-9.6-11.5h-2V36.8z"/>
	<path class="st2" d="M54.8,9.2h16.9v4.7h-11v8.6H71v4.7H60.6v9.5h11.5v4.7H54.8V9.2z"/>
	<path class="st2" d="M92.2,9.2h7l10.7,25.2h0.1V9.2h5.3v32.1h-7l-10.6-25h-0.1v25h-5.3V9.2z"/>
</g>
<polygon class="st3" points="40.7,26 4.1,26 5.6,24.5 4.1,23 40.7,23 39.2,24.5 "/>
<polygon class="st3" points="81.6,26 45,26 46.6,24.5 45,23 81.6,23 80.2,24.5 "/>
<polygon class="st3" points="122.2,26 85.7,26 87.2,24.5 85.7,23 122.2,23 120.8,24.5 "/>
</svg>
