<?xml version="1.0" encoding="utf-8"?>
<!-- Generator: Adobe Illustrator 23.0.1, SVG Export Plug-In . SVG Version: 6.00 Build 0)  -->
<svg version="1.1" id="Layer_1" xmlns="http://www.w3.org/2000/svg" xmlns:xlink="http://www.w3.org/1999/xlink" x="0px" y="0px"
	 viewBox="0 0 183.1 136.7" style="enable-background:new 0 0 183.1 136.7;" xml:space="preserve">
<style type="text/css">
	.st0{fill-rule:evenodd;clip-rule:evenodd;fill:#FFFFFF;}
	.st1{fill-rule:evenodd;clip-rule:evenodd;fill:#544A5B;}
</style>
<path class="st0" d="M153.8,121.8c4.2-8.9,6.6-18.9,6.6-29.5c0-38.1-30.9-68.9-68.9-68.9c-38.1,0-68.9,30.9-68.9,68.9
	c0,10.6,2.4,20.5,6.6,29.5l15.1,0.1c0,0-1.6,6.9,6.4,6.9c25,0,26.8-7,26.8-7l13.7-0.1l14.6,0.1c0,0,2,7,22,7c14.1,0,10.3-7,10.3-7
	L153.8,121.8z"/>
<path class="st1" d="M91.2,6.8c42.3,0,76.6,34.3,76.6,76.6c0,11.2-2.4,21.8-6.7,31.4h12.8c1.9,0,3.5,1.6,3.5,3.5l0,0
	c0,1.9-1.6,3.5-3.5,3.5h-16.4H138c-0.3-0.5-0.6-1.1-0.9-1.7l0,0L137,120l0-0.1l-0.1-0.2l0,0c-2.4-3.9-6.3-8.2-12.3-8.8l0,0
	c-2-0.2-4.2,0-6.6,0.8c-5.2,1.7-8.6,3.1-10.8,4.3c0-1.2,0.2-2.1,1.1-3.3c1.3-1.7,4.4-3.8,11.4-5.5c2-0.5,3.8-0.6,5.5-0.5
	c0-0.3,0-0.6,0-0.9c0-10.9-7.6-20.4-18.8-25c12-19.3,1.5-31.1-8.7-52.5c-0.2-0.5-0.8-0.8-1.5-0.7c-0.6,0.1-0.9,0.5-0.9,0.9h0v49.5
	C93.9,78,92.6,78,91.2,78c-1.4,0-2.8,0.1-4.1,0.2V28.6h0c0-0.4-0.4-0.8-0.9-0.9c-0.7-0.1-1.3,0.2-1.5,0.7
	c-10.2,21.4-20.7,33.2-8.7,52.5c-11.1,4.6-18.8,14.1-18.8,25c0,0.3,0,0.6,0,0.9c1.7-0.1,3.5,0,5.5,0.5c7,1.7,10.2,3.7,11.4,5.5
	c0.9,1.2,1,2.1,1.1,3.3c-2.2-1.1-5.5-2.6-10.8-4.3c-2.4-0.8-4.6-1-6.6-0.8l0,0c-7,0.7-11.3,6.6-13.5,10.9H25H8.6
	c-1.9,0-3.5-1.6-3.5-3.5l0,0c0-1.9,1.6-3.5,3.5-3.5h12.8c-4.3-9.6-6.7-20.2-6.7-31.4C14.6,41.1,48.9,6.8,91.2,6.8L91.2,6.8z
	 M102.9,91.9c0,0.2,0.1,0.4,0.1,0.6c0.4,0.9,1.9,2.6,1.1,5.2c0,0-1.1-1.4-1.7-1c0,0.1-0.1,0.2-0.1,0.3c-0.1,1.1,0.7,4.6-3.5,6.7
	c0,0,0.7-1,0.2-2.5l0,0c-0.3,0.2-0.7,0.5-1,0.7l0,0c-1.4,1.6-2.2,3.1-6.1,2.8c-0.7-0.1-1.3-0.2-1.7-0.3c-1.3-0.1-2.7-0.4-3.8-0.9
	c0.8,0.5,1.7,1.1,2.8,1.5c-0.9,1-9.6-1.3-8.9-7.8c-0.9,0.8-1.1,1.6-1.1,1.6c-0.9-2.2-0.4-3.9,0.4-5.1c0.1,0.3,0.2,0.7,0.3,1
	c0,0,0.1-0.8,0.9-1.6c-0.6,6.4,6.9,8.8,7.7,7.8c-0.9-0.5-1.7-1-2.4-1.5c1,0.5,2.2,0.9,3.3,0.9c0.4,0.1,0.9,0.2,1.5,0.3
	c3.4,0.3,4.1-1.1,5.3-2.8l0,0c0.3-0.2,0.6-0.4,0.9-0.7l0,0c0.4,1.6-0.2,2.5-0.2,2.5c3.6-2.1,2.9-5.6,3-6.7c0-0.1,0.1-0.2,0.1-0.3
	c0.5-0.4,1.4,1,1.4,1c0.7-2.7-0.5-4.3-0.9-5.2c0-0.2,0-0.4-0.1-0.6v0c0.2-0.4,1,0,1.5,0.4c1.2,1,2.4,2.4,3.4,4.5
	C105.4,92.8,103.4,91.3,102.9,91.9L102.9,91.9L102.9,91.9z M133.3,118.6c0,1.8-3.2,1.2-4.1-0.6C127.3,114.4,133.3,114.6,133.3,118.6
	L133.3,118.6z M62.7,117.1c-4.2,0-5.4,1.1-6.6,2.8C44.7,137.3,97.9,117.1,62.7,117.1L62.7,117.1z M47.4,125.7
	c0.5,1.9,3.4,0.6,4.3-1.3C54.2,119.5,45.9,120.3,47.4,125.7L47.4,125.7z M50.5,118.6c0,1.8,3.2,1.2,4.1-0.6
	C56.5,114.4,50.5,114.6,50.5,118.6L50.5,118.6z M121.1,117.1c4.2,0,5.4,1.1,6.6,2.8C139.2,137.3,85.9,117.1,121.1,117.1L121.1,117.1
	z M136.4,125.7c-0.5,1.9-3.4,0.6-4.3-1.3C129.6,119.5,137.9,120.3,136.4,125.7L136.4,125.7z"/>
</svg>
