<?xml version="1.0" encoding="utf-8"?>
<!-- Generator: Adobe Illustrator 23.0.1, SVG Export Plug-In . SVG Version: 6.00 Build 0)  -->
<svg version="1.1" id="Layer_1" xmlns="http://www.w3.org/2000/svg" xmlns:xlink="http://www.w3.org/1999/xlink" x="0px" y="0px"
	 viewBox="0 0 181 232" style="enable-background:new 0 0 181 232;" xml:space="preserve">
<style type="text/css">
	.st0{fill:#2A5788;}
	.st1{fill:url(#SVGID_1_);}
	.st2{fill:#BBDAF2;}
	.st3{fill:#4575A0;}
</style>
<path class="st0" d="M175.1,45.9c0-2.8-1.8-6.4-4-8l-33.6-25.2c-2.2-1.7-6.2-3-9-3H55.4c-2.8,0-6.8,1.4-9,3L12.9,37.9
	c-2.2,1.7-4,5.3-4,8v141.2c0,2.8,1.8,6.4,4,8l33.6,25.2c2.2,1.7,6.2,3,9,3h73.1c2.8,0,6.8-1.4,9-3l33.6-25.2c2.2-1.7,4-5.3,4-8V45.9
	z M99.2,193.9c0,2.4-0.9,6.5-2.1,9c0,0-1.2,2.6-5.1,2.6s-5.1-2.6-5.1-2.6c-1.1-2.5-2.1-6.5-2.1-9c0-2.4,0.9-6.5,2.1-9
	c0,0,1.2-2.6,5.1-2.6s5.1,2.6,5.1,2.6C98.3,187.4,99.2,191.5,99.2,193.9z"/>
<linearGradient id="SVGID_1_" gradientUnits="userSpaceOnUse" x1="104.4767" y1="90.9239" x2="71.2746" y2="159.0564">
	<stop  offset="0" style="stop-color:#2C5A8D"/>
	<stop  offset="0.383" style="stop-color:#346DAB"/>
	<stop  offset="0.7464" style="stop-color:#2A5788"/>
</linearGradient>
<polygon class="st1" points="165,186.7 19,112.7 19,46.4 165,120.4 "/>
<g>
	<path class="st2" d="M89.5,130.3c13.5,0,21.8,9.3,21.8,23.4c0,5.8-0.3,9.7-0.8,13.4H69.6c-0.6-3.3-1-7.4-1-13.2
		C68.6,138.7,77,130.3,89.5,130.3z M89.7,140.8c-7.4,0-12.1,4.4-12.1,12.6c0,1.3,0,2.6,0.1,4.1h24.6c0.1-1.4,0.1-2.8,0.1-4.4
		C102.4,145.3,97.4,140.8,89.7,140.8z"/>
	<path class="st2" d="M106.2,95.7c1.4,0,2.9,0.1,4.3,0.4V124H69.4V96.8c1.3-0.4,2.9-0.5,4.3-0.5s2.8,0.1,4.2,0.5v17.6h7.4V98.7
		c1.4-0.3,2.8-0.4,4.2-0.4c1.4,0,2.8,0.1,4.2,0.4v15.7h8.3V96.2C103.4,95.9,104.8,95.7,106.2,95.7z"/>
	<path class="st2" d="M69.5,53.6h40.8c0.6,3.1,0.7,6.3,0.5,9.2L87.5,78.7L85.1,80l2.9-0.3h22.5c0.3,1.7,0.4,3.3,0.4,4.8
		c0,1.6-0.1,2.9-0.4,4.7H69.8c-0.7-2.2-1-6-0.6-9.2l23.9-15.8l2.5-1.4l-3.3,0.3H69.5c-0.3-1.7-0.4-2.9-0.4-4.6
		C69.1,56.9,69.3,55.4,69.5,53.6z"/>
</g>
<path class="st3" d="M124.7,214.3h-3v-2h3V214.3z M118.7,214.3h-3v-2h3V214.3z M112.7,214.3h-3v-2h3V214.3z M106.7,214.3h-3v-2h3
	V214.3z M100.7,214.3h-3v-2h3V214.3z M94.7,214.3h-3v-2h3V214.3z M88.7,214.3h-3v-2h3V214.3z M82.7,214.3h-3v-2h3V214.3z
	 M76.8,214.3h-3v-2h3V214.3z M70.8,214.3h-3v-2h3V214.3z M64.8,214.3h-3v-2h3V214.3z M58.8,214.3L58.8,214.3c-0.9,0-2-0.1-3.2-0.4
	l0.5-1.9c1,0.2,2,0.4,2.7,0.4L58.8,214.3z M127.9,214l-0.4-2c0.9-0.2,1.8-0.4,2.7-0.8l0.7,1.9C129.9,213.5,128.8,213.8,127.9,214z
	 M52.6,212.9c-1.1-0.4-2-0.9-2.8-1.4l1.1-1.7c0.7,0.4,1.5,0.9,2.5,1.3L52.6,212.9z M133.8,211.8l-1-1.7c0.3-0.2,0.6-0.4,0.9-0.6
	l1.5-1.1l1.2,1.6l-1.5,1.1C134.5,211.3,134.2,211.6,133.8,211.8z M47.3,209.7l-2.4-1.8l1.2-1.6l2.4,1.8L47.3,209.7z M138.7,208.2
	l-1.2-1.6l2.4-1.8l1.2,1.6L138.7,208.2z M42.5,206.1l-2.4-1.8l1.2-1.6l2.4,1.8L42.5,206.1z M143.5,204.6l-1.2-1.6l2.4-1.8l1.2,1.6
	L143.5,204.6z M37.7,202.5l-2.4-1.8l1.2-1.6l2.4,1.8L37.7,202.5z M148.3,201l-1.2-1.6l2.4-1.8l1.2,1.6L148.3,201z M32.9,198.9
	l-2.4-1.8l1.2-1.6l2.4,1.8L32.9,198.9z M153.1,197.4l-1.2-1.6l2.4-1.8l1.2,1.6L153.1,197.4z M28.1,195.3l-2.4-1.8l1.2-1.6l2.4,1.8
	L28.1,195.3z M157.9,193.8l-1.2-1.6l2.4-1.8l1.2,1.6L157.9,193.8z M23.3,191.7l-1-0.8c-0.5-0.4-0.9-0.8-1.4-1.3l1.5-1.3
	c0.3,0.4,0.7,0.7,1.1,1l1,0.8L23.3,191.7z M162.7,190l-1.4-1.4c0.6-0.6,1.1-1.4,1.6-2.2l1.8,1C164.1,188.4,163.4,189.3,162.7,190z
	 M19.1,186.9c-0.5-1-0.9-2.1-1.1-3.1l2-0.4c0.2,0.8,0.5,1.7,0.9,2.6L19.1,186.9z M165.8,184.4l-1.9-0.5c0.2-0.6,0.3-1.3,0.3-1.8
	v-0.9h2v0.9C166.1,182.8,166,183.6,165.8,184.4z M19.9,180.6h-2v-3h2V180.6z M166.1,178.2h-2v-3h2V178.2z M19.9,174.6h-2v-3h2V174.6
	z M166.1,172.2h-2v-3h2V172.2z M19.9,168.7h-2v-3h2V168.7z M166.1,166.2h-2v-3h2V166.2z M19.9,162.7h-2v-3h2V162.7z M166.1,160.2h-2
	v-3h2V160.2z M19.9,156.7h-2v-3h2V156.7z M166.1,154.2h-2v-3h2V154.2z M19.9,150.7h-2v-3h2V150.7z M166.1,148.2h-2v-3h2V148.2z
	 M19.9,144.7h-2v-3h2V144.7z M166.1,142.2h-2v-3h2V142.2z M19.9,138.7h-2v-3h2V138.7z M166.1,136.2h-2v-3h2V136.2z M19.9,132.7h-2
	v-3h2V132.7z M166.1,130.3h-2v-3h2V130.3z M19.9,126.7h-2v-3h2V126.7z M166.1,124.3h-2v-3h2V124.3z M19.9,120.7h-2v-3h2V120.7z
	 M166.1,118.3h-2v-3h2V118.3z M19.9,114.7h-2v-3h2V114.7z M166.1,112.3h-2v-3h2V112.3z M19.9,108.7h-2v-3h2V108.7z M166.1,106.3h-2
	v-3h2V106.3z M19.9,102.7h-2v-3h2V102.7z M166.1,100.3h-2v-3h2V100.3z M19.9,96.8h-2v-3h2V96.8z M166.1,94.3h-2v-3h2V94.3z
	 M19.9,90.8h-2v-3h2V90.8z M166.1,88.3h-2v-3h2V88.3z M19.9,84.8h-2v-3h2V84.8z M166.1,82.3h-2v-3h2V82.3z M19.9,78.8h-2v-3h2V78.8z
	 M166.1,76.3h-2v-3h2V76.3z M19.9,72.8h-2v-3h2V72.8z M166.1,70.3h-2v-3h2V70.3z M19.9,66.8h-2v-3h2V66.8z M166.1,64.3h-2v-3h2V64.3
	z M19.9,60.8h-2v-3h2V60.8z M166.1,58.4h-2v-3h2V58.4z M19.9,54.8h-2v-3h2V54.8z M166.1,52.4h-2v-1.5c0-0.4,0-0.9-0.1-1.3l2-0.4
	c0.1,0.6,0.2,1.2,0.2,1.7V52.4z M20.1,49.1l-1.9-0.5c0.3-1,0.7-2,1.2-3l1.8,1C20.7,47.4,20.3,48.2,20.1,49.1z M163.1,47
	c-0.4-0.8-0.9-1.6-1.5-2.3l1.5-1.3c0.7,0.8,1.3,1.7,1.8,2.7L163.1,47z M22.7,44.3l-1.4-1.4c0.3-0.3,0.6-0.6,1-0.9l1.5-1.1l1.2,1.6
	l-1.5,1.1C23.2,43.9,23,44.1,22.7,44.3z M159.5,42.9l-2.4-1.8l1.2-1.6l2.4,1.8L159.5,42.9z M27.3,40.8l-1.2-1.6l2.4-1.8l1.2,1.6
	L27.3,40.8z M154.7,39.3l-2.4-1.8l1.2-1.6l2.4,1.8L154.7,39.3z M32.1,37.2l-1.2-1.6l2.4-1.8l1.2,1.6L32.1,37.2z M149.9,35.7
	l-2.4-1.8l1.2-1.6l2.4,1.8L149.9,35.7z M36.9,33.6L35.7,32l2.4-1.8l1.2,1.6L36.9,33.6z M145.1,32.1l-2.4-1.8l1.2-1.6l2.4,1.8
	L145.1,32.1z M41.7,30l-1.2-1.6l2.4-1.8l1.2,1.6L41.7,30z M140.3,28.5l-2.4-1.8l1.2-1.6l2.4,1.8L140.3,28.5z M46.5,26.4l-1.2-1.6
	l2.4-1.8l1.2,1.6L46.5,26.4z M135.5,24.9l-1.9-1.4c-0.1-0.1-0.3-0.2-0.5-0.3l1.1-1.7c0.2,0.1,0.4,0.3,0.6,0.4l1.9,1.4L135.5,24.9z
	 M51.3,22.9l-1-1.7c0.8-0.5,1.8-1,2.9-1.3l0.7,1.9C52.9,22.1,52,22.5,51.3,22.9z M130.7,21.9c-0.9-0.4-1.8-0.6-2.7-0.9l0.5-1.9
	c1,0.2,2,0.6,3,0.9L130.7,21.9z M56.5,21l-0.4-2c1-0.2,1.8-0.3,2.6-0.3h0.6v2h-0.6C58.1,20.7,57.4,20.8,56.5,21z M125.2,20.7h-3v-2
	h3V20.7z M119.2,20.7h-3v-2h3V20.7z M113.2,20.7h-3v-2h3V20.7z M107.3,20.7h-3v-2h3V20.7z M101.3,20.7h-3v-2h3V20.7z M95.3,20.7h-3
	v-2h3V20.7z M89.3,20.7h-3v-2h3V20.7z M83.3,20.7h-3v-2h3V20.7z M77.3,20.7h-3v-2h3V20.7z M71.3,20.7h-3v-2h3V20.7z M65.3,20.7h-3
	v-2h3V20.7z"/>
</svg>
