<?xml version="1.0" encoding="utf-8"?>
<!-- Generator: Adobe Illustrator 23.0.1, SVG Export Plug-In . SVG Version: 6.00 Build 0)  -->
<svg version="1.1" id="Layer_1" xmlns="http://www.w3.org/2000/svg" xmlns:xlink="http://www.w3.org/1999/xlink" x="0px" y="0px"
	 viewBox="0 0 32 32" style="enable-background:new 0 0 32 32;" xml:space="preserve">
<style type="text/css">
	.st0{fill:none;stroke:#FFFFFF;stroke-width:2;stroke-linecap:round;stroke-linejoin:round;stroke-miterlimit:10;}
</style>
<path class="st0" d="M31,16c0,4.7-2.1,8.8-5.5,11.6C22.9,29.7,19.6,31,16,31s-6.9-1.3-9.5-3.4C3.1,24.8,1,20.7,1,16
	C1,7.7,7.7,1,16,1S31,7.7,31,16z"/>
<path class="st0" d="M21.9,13.1c0,2.2-1.2,4.9-3,6.3c0,0-0.1,0-0.1,0.1c-0.8,0.6-1.7,1-2.7,1c-1,0-1.9-0.4-2.7-1c0,0-0.1,0-0.1-0.1
	c-1.8-1.5-3-4.1-3-6.3c0-3.2,2.6-5.8,5.9-5.8S21.9,9.9,21.9,13.1z"/>
<path class="st0" d="M24.6,27.9L24.6,27.9c-2.3,2-5.3,3.1-8.6,3.1s-6.2-1.2-8.6-3.1v0c0-3.8,2.4-6.9,5.8-8.1c0,0,0.1,0,0.1,0.1
	c0.8,0.6,1.7,1,2.7,1s1.9-0.4,2.7-1c0,0,0.1-0.1,0.1-0.1C22.2,20.9,24.6,24.1,24.6,27.9z"/>
</svg>
