<?xml version="1.0" encoding="utf-8"?>
<!-- Generator: Adobe Illustrator 23.0.1, SVG Export Plug-In . SVG Version: 6.00 Build 0)  -->
<svg version="1.1" id="Layer_1" xmlns="http://www.w3.org/2000/svg" xmlns:xlink="http://www.w3.org/1999/xlink" x="0px" y="0px"
	 viewBox="0 0 32 32" style="enable-background:new 0 0 32 32;" xml:space="preserve">
<style type="text/css">
	.st0{fill:none;stroke:#FFFFFF;stroke-width:2;stroke-linecap:round;stroke-linejoin:round;stroke-miterlimit:10;}
	.st1{clip-path:url(#SVGID_2_);}
	.st2{fill-rule:evenodd;clip-rule:evenodd;fill:#FFFFFF;}
</style>
<path class="st0" d="M31,16c0,4.7-2.1,8.8-5.5,11.6C22.9,29.7,19.6,31,16,31s-6.9-1.3-9.5-3.4C3.1,24.8,1,20.7,1,16
	C1,7.7,7.7,1,16,1S31,7.7,31,16z"/>
<g>
	<defs>
		<circle id="SVGID_1_" cx="16" cy="16" r="12.5"/>
	</defs>
	<clipPath id="SVGID_2_">
		<use xlink:href="#SVGID_1_"  style="overflow:visible;"/>
	</clipPath>
	<g id="Layer_18" class="st1">
		<path class="st2" d="M20.2,13.7c-0.6-1.5-2.6-2.1-4-1.3l-0.3,0.1c-0.1-1.9,0-3.7,0.3-5.7l-1.5-0.2c-0.2,1.7-0.4,3.3-0.4,5L12,7.4
			l-1.3,0.8l2.4,4.2c-1.5-0.9-2.9-1.5-4.5-2.2L8,11.6c1.8,0.7,3.4,1.4,5.1,2.5l-0.2,0.1c-1.3,0.7-1.8,2.5-1.1,3.8
			c0.2,0.3,0.5,0.6,0.7,0.9l2.8-1.6l0.7,1.2L13.3,20l4.1,4.8l2.9-1.7l0.7,1.1l-2.7,1.6l6.5,7.7l2-1.2c-1.7-4.4-3.2-8.9-4.7-13.4
			l-2.6,1.5l-0.7-1.1l2.9-1.7C21.2,16.4,20.7,15,20.2,13.7"/>
	</g>
</g>
</svg>
