<?xml version="1.0" encoding="utf-8"?>
<!-- Generator: Adobe Illustrator 23.0.1, SVG Export Plug-In . SVG Version: 6.00 Build 0)  -->
<svg version="1.1" id="Layer_1" xmlns="http://www.w3.org/2000/svg" xmlns:xlink="http://www.w3.org/1999/xlink" x="0px" y="0px"
	 viewBox="0 0 616.4 612" style="enable-background:new 0 0 616.4 612;" xml:space="preserve">
<style type="text/css">
	.st0{fill:#80BB41;}
	.st1{fill:#FFFFFF;}
</style>
<circle class="st0" cx="308.3" cy="306" r="301.9"/>
<g>
	<path class="st1" d="M117.5,291.9L117.5,291.9c-2.8-2.8-2.8-7.4,0-10.3l35.1-35.1c2.8-2.8,7.4-2.8,10.3,0l0,0
		c2.8,2.8,2.8,7.4,0,10.3l-35.1,35.1C125,294.7,120.3,294.7,117.5,291.9z"/>
	<path class="st1" d="M295.4,453.4L295.4,453.4c-2.8-2.8-2.8-7.4,0-10.3l35.1-35.1c2.8-2.8,7.4-2.8,10.3,0l0,0
		c2.8,2.8,2.8,7.4,0,10.3l-35.1,35.1C302.9,456.2,298.3,456.2,295.4,453.4z"/>
	<path class="st1" d="M314.3,485.8L314.3,485.8c-2.8-2.8-2.8-7.4,0-10.3l24.4-24.4c2.8-2.8,7.4-2.8,10.3,0l0,0
		c2.8,2.8,2.8,7.4,0,10.3l-24.4,24.4C321.7,488.6,317.1,488.6,314.3,485.8z"/>
	<path class="st1" d="M195.3,324.4L195.3,324.4c-2.8-2.8-2.8-7.4,0-10.3l35.1-35.1c2.8-2.8,7.4-2.8,10.3,0l0,0
		c2.8,2.8,2.8,7.4,0,10.3l-35.1,35.1C202.8,327.2,198.1,327.2,195.3,324.4z"/>
	<path class="st1" d="M285.1,414.2L285.1,414.2c-2.8-2.8-2.8-7.4,0-10.3l35.1-35.1c2.8-2.8,7.4-2.8,10.3,0v0c2.8,2.8,2.8,7.4,0,10.3
		l-35.1,35.1C292.5,417,287.9,417,285.1,414.2z"/>
	<path class="st1" d="M150.2,311.7L150.2,311.7c-2.8-2.8-2.8-7.4,0-10.3l14.2-14.2c2.8-2.8,7.4-2.8,10.3,0l0,0
		c2.8,2.8,2.8,7.4,0,10.3l-14.2,14.2C157.6,314.5,153,314.5,150.2,311.7z"/>
	<path class="st1" d="M179.8,282.1L179.8,282.1c-2.8-2.8-2.8-7.4,0-10.3l8.4-8.4c2.8-2.8,7.4-2.8,10.3,0h0c2.8,2.8,2.8,7.4,0,10.3
		l-8.4,8.4C187.2,284.9,182.6,284.9,179.8,282.1z"/>
	<path class="st1" d="M154.3,453.4C154.2,453.4,154.2,453.4,154.3,453.4c-1.4-1.4-2-3.2-1.7-5.1l1.9-13.4c0.1-1,0.5-1.9,1.1-2.7
		l6.1-8.4l-48.7-26.4c-1.8-1-3-2.8-3.1-4.8c-0.2-2,0.7-4,2.3-5.2l16.2-12.7c1.3-1,2.9-1.4,4.5-1.2l66.3,8.9l75.7-108.3L106.4,211
		c-1.8-0.7-3.1-2.1-3.7-3.9c-0.5-1.8-0.2-3.8,1-5.3l12.1-16.1c1.3-1.7,3.3-2.6,5.4-2.4L355.3,207c34.2-41.2,64.8-64,96.4-71.6
		c11.6-2.8,20.1-1.5,25.2,3.8c8,8.4,4.1,23.5,3.6,25.6c0,0,0,0,0,0c0,0.1-0.1,0.2-0.1,0.3c-8.6,31.3-32.2,61.2-74.2,94.2l17,234.7
		c0.2,2.1-0.8,4.1-2.5,5.3l-16.4,11.6c-1.5,1.1-3.5,1.4-5.3,0.8c-1.8-0.6-3.2-2-3.8-3.8l-58.4-170l-110.4,72.6l7,66.5
		c0.2,1.6-0.3,3.2-1.4,4.5l-13.2,15.8c-1.3,1.6-3.3,2.4-5.3,2.1c-2-0.2-3.8-1.5-4.7-3.3l-25-49.5l-8.5,5.9c-0.8,0.6-1.8,0.9-2.7,1
		l-13.4,1.5C157.4,455.3,155.6,454.7,154.3,453.4z M166.1,438.1l-0.6,4.3l4.3-0.5l9.9-6.8c2.2-1.5,4.9-2,7.5-1.3
		c2.6,0.7,4.7,2.4,5.9,4.8l22.3,44.2l5.7-6.8l-6.9-65.7c-0.4-3.4,1.2-6.8,4.1-8.6L333.1,326c2.4-1.6,5.4-1.9,8-1
		c2.7,0.9,4.8,3,5.7,5.7l56.9,165.8l7.1-5l-16.8-232.8c-0.2-3.1,1.1-6,3.5-7.9c40.7-31.7,63.4-60,71.3-89l0,0c0,0,0-0.1,0-0.1
		c0,0,0-0.1,0-0.1c1.3-4.3,1.6-11.7-0.7-14.1c-1.8-1.9-6.9-2.1-13.7-0.4c-29.2,7.1-58.1,28.9-90.9,68.7c-2,2.4-5,3.6-8,3.3
		l-232.3-23.4l-5.2,6.9l164.1,61.6c2.6,1,4.7,3.2,5.6,5.9c0.8,2.7,0.4,5.6-1.2,8l-78.7,112.6c-2,2.8-5.3,4.3-8.8,3.8l-65.4-8.8
		l-7,5.5l43.5,23.5c2.3,1.3,4,3.5,4.6,6.1c0.6,2.6,0,5.3-1.5,7.4L166.1,438.1z M406.1,257.8C406.1,257.8,406.1,257.8,406.1,257.8
		C406.1,257.8,406.1,257.8,406.1,257.8z M474.7,163.3L474.7,163.3L474.7,163.3z"/>
</g>
</svg>
