<?xml version="1.0" encoding="utf-8"?>
<!-- Generator: Adobe Illustrator 23.0.1, SVG Export Plug-In . SVG Version: 6.00 Build 0)  -->
<svg version="1.1" id="Layer_1" xmlns="http://www.w3.org/2000/svg" xmlns:xlink="http://www.w3.org/1999/xlink" x="0px" y="0px"
	 viewBox="0 0 367.6 116.1" style="enable-background:new 0 0 367.6 116.1;" xml:space="preserve">
<style type="text/css">
	.st0{fill-rule:evenodd;clip-rule:evenodd;fill:#D9D3DE;}
	.st1{fill:#39353B;}
	.st2{fill:#53495A;}
</style>
<path class="st0" d="M124.8,93.8c3-6.4,4.8-13.6,4.8-21.2C129.5,45.2,107.4,23,80,23c-27.4,0-49.6,22.2-49.6,49.6
	c0,7.6,1.7,14.8,4.8,21.2l10.9-0.3l14.3,4.2l19.4-4l19.8,4l17.3-4.7L124.8,93.8z"/>
<path class="st0" d="M172.6,34.9c0-1.2-0.3-2-1-2.5c-0.6-0.5-1.5-0.8-2.6-0.8c-0.7,0-1.5,0.1-2.2,0.3c-0.7,0.2-1.3,0.5-1.9,0.8V52
	c-0.4,0.1-1,0.2-1.8,0.3c-0.8,0.1-1.6,0.2-2.5,0.2c-0.8,0-1.5-0.1-2.2-0.2c-0.7-0.1-1.2-0.3-1.6-0.7c-0.4-0.3-0.8-0.8-1-1.4
	c-0.2-0.6-0.4-1.3-0.4-2.3V31.4c0-1,0.2-1.8,0.6-2.5c0.4-0.6,1-1.2,1.8-1.7c1.3-0.9,2.9-1.6,4.8-2.2c1.9-0.6,4-0.8,6.4-0.8
	c4.2,0,7.4,0.9,9.7,2.8c2.3,1.8,3.4,4.4,3.4,7.7V52c-0.4,0.1-1,0.2-1.8,0.3c-0.8,0.1-1.6,0.2-2.5,0.2c-0.8,0-1.6-0.1-2.2-0.2
	c-0.6-0.1-1.2-0.3-1.6-0.7c-0.4-0.3-0.8-0.8-1-1.4c-0.2-0.6-0.4-1.3-0.4-2.3V34.9L172.6,34.9z M199.5,46.1c0.6,0,1.3-0.1,2.1-0.2
	c0.8-0.1,1.3-0.3,1.7-0.5v-4.5l-4,0.3c-1,0.1-1.9,0.3-2.6,0.7c-0.7,0.4-1,0.9-1,1.7c0,0.7,0.3,1.3,0.9,1.8
	C197.2,45.8,198.2,46.1,199.5,46.1L199.5,46.1z M199.1,24.2c2,0,3.8,0.2,5.5,0.6c1.7,0.4,3.1,1,4.2,1.9c1.2,0.8,2.1,1.9,2.7,3.2
	c0.6,1.3,0.9,2.8,0.9,4.5v12.5c0,1-0.3,1.8-0.8,2.4c-0.5,0.6-1.2,1.1-1.9,1.6c-2.4,1.4-5.8,2.2-10.2,2.2c-2,0-3.7-0.2-5.3-0.6
	c-1.6-0.4-2.9-0.9-4.1-1.7c-1.1-0.7-2-1.7-2.6-2.8c-0.6-1.2-0.9-2.5-0.9-4c0-2.6,0.8-4.5,2.3-5.9c1.5-1.4,3.9-2.2,7.1-2.6l7.3-0.8
	v-0.4c0-1.1-0.5-1.8-1.4-2.3c-0.9-0.5-2.3-0.7-4.1-0.7c-1.4,0-2.8,0.1-4.1,0.4c-1.3,0.3-2.5,0.7-3.6,1.1c-0.5-0.3-0.9-0.8-1.2-1.5
	c-0.3-0.7-0.5-1.4-0.5-2.1c0-1,0.2-1.7,0.7-2.3c0.5-0.6,1.2-1.1,2.1-1.5c1.1-0.4,2.3-0.7,3.8-0.9C196.4,24.3,197.8,24.2,199.1,24.2
	L199.1,24.2z M230.7,24.2c2.2,0,4.3,0.3,6.2,0.9c1.9,0.6,3.6,1.5,4.9,2.6c1.4,1.2,2.5,2.7,3.2,4.5c0.8,1.8,1.2,3.9,1.2,6.4
	c0,2.4-0.3,4.5-1,6.2c-0.7,1.8-1.6,3.3-2.8,4.5c-1.2,1.2-2.7,2.1-4.4,2.7c-1.7,0.6-3.6,0.9-5.8,0.9c-1.6,0-3.1-0.2-4.5-0.7v9.2
	c-0.4,0.1-1,0.2-1.8,0.4c-0.8,0.1-1.7,0.2-2.5,0.2c-0.8,0-1.6-0.1-2.2-0.2c-0.6-0.1-1.2-0.3-1.6-0.7c-0.4-0.3-0.8-0.8-1-1.4
	c-0.2-0.6-0.3-1.3-0.3-2.3V30.8c0-1,0.2-1.8,0.6-2.5c0.4-0.6,1-1.2,1.8-1.7c1.2-0.7,2.6-1.3,4.3-1.8
	C226.6,24.4,228.6,24.2,230.7,24.2L230.7,24.2z M230.8,45.5c3.8,0,5.7-2.3,5.7-6.9c0-2.4-0.5-4.1-1.4-5.3c-0.9-1.2-2.3-1.7-4.1-1.7
	c-0.7,0-1.3,0.1-1.9,0.3c-0.6,0.2-1,0.4-1.4,0.6v12.3c0.4,0.2,0.9,0.4,1.4,0.6C229.6,45.4,230.2,45.5,230.8,45.5L230.8,45.5z
	 M263.3,24.2c2.2,0,4.3,0.3,6.2,0.9c1.9,0.6,3.6,1.5,4.9,2.6c1.4,1.2,2.5,2.7,3.2,4.5c0.8,1.8,1.2,3.9,1.2,6.4c0,2.4-0.3,4.5-1,6.2
	c-0.7,1.8-1.6,3.3-2.8,4.5c-1.2,1.2-2.7,2.1-4.4,2.7c-1.7,0.6-3.6,0.9-5.8,0.9c-1.6,0-3.1-0.2-4.5-0.7v9.2c-0.4,0.1-1,0.2-1.8,0.4
	c-0.8,0.1-1.7,0.2-2.5,0.2c-0.8,0-1.6-0.1-2.2-0.2c-0.6-0.1-1.2-0.3-1.6-0.7c-0.4-0.3-0.8-0.8-1-1.4c-0.2-0.6-0.3-1.3-0.3-2.3V30.8
	c0-1,0.2-1.8,0.6-2.5c0.4-0.6,1-1.2,1.8-1.7c1.2-0.7,2.6-1.3,4.3-1.8C259.2,24.4,261.1,24.2,263.3,24.2L263.3,24.2z M263.4,45.5
	c3.8,0,5.7-2.3,5.7-6.9c0-2.4-0.5-4.1-1.4-5.3c-0.9-1.2-2.3-1.7-4.1-1.7c-0.7,0-1.3,0.1-1.9,0.3c-0.6,0.2-1,0.4-1.4,0.6v12.3
	c0.4,0.2,0.9,0.4,1.4,0.6C262.2,45.4,262.8,45.5,263.4,45.5L263.4,45.5z M293.1,52c-0.4,0.1-1,0.2-1.8,0.3c-0.8,0.1-1.6,0.2-2.4,0.2
	c-0.8,0-1.6-0.1-2.2-0.2c-0.7-0.1-1.2-0.3-1.6-0.7c-0.4-0.3-0.8-0.8-1-1.4c-0.2-0.6-0.4-1.3-0.4-2.3V25.4c0.4-0.1,1-0.2,1.8-0.3
	c0.8-0.1,1.6-0.2,2.4-0.2c0.8,0,1.6,0.1,2.2,0.2c0.7,0.1,1.2,0.3,1.6,0.7c0.4,0.3,0.8,0.8,1,1.4c0.2,0.6,0.4,1.3,0.4,2.3V52
	L293.1,52z M316.3,34.9c0-1.2-0.3-2-1-2.5c-0.6-0.5-1.5-0.8-2.6-0.8c-0.7,0-1.5,0.1-2.2,0.3c-0.7,0.2-1.3,0.5-1.9,0.8V52
	c-0.4,0.1-1,0.2-1.8,0.3c-0.8,0.1-1.6,0.2-2.5,0.2c-0.8,0-1.6-0.1-2.2-0.2c-0.7-0.1-1.2-0.3-1.6-0.7c-0.4-0.3-0.8-0.8-1-1.4
	s-0.4-1.3-0.4-2.3V31.4c0-1,0.2-1.8,0.6-2.5c0.4-0.6,1-1.2,1.8-1.7c1.3-0.9,2.9-1.6,4.8-2.2c1.9-0.6,4-0.8,6.4-0.8
	c4.2,0,7.4,0.9,9.7,2.8c2.3,1.8,3.4,4.4,3.4,7.7V52c-0.4,0.1-1,0.2-1.8,0.3c-0.8,0.1-1.6,0.2-2.5,0.2c-0.8,0-1.6-0.1-2.2-0.2
	c-0.6-0.1-1.2-0.3-1.6-0.7c-0.4-0.3-0.8-0.8-1-1.4c-0.2-0.6-0.4-1.3-0.4-2.3V34.9L316.3,34.9z M344.8,24.2c2.1,0,4,0.3,5.8,0.8
	c1.7,0.5,3.2,1.2,4.4,2.1c0.7,0.5,1.3,1.1,1.8,1.7c0.4,0.6,0.6,1.4,0.6,2.5v19.5c0,2-0.4,3.7-1.1,5.1c-0.7,1.4-1.8,2.6-3,3.6
	c-1.3,0.9-2.8,1.6-4.5,2.1c-1.7,0.4-3.6,0.7-5.5,0.7c-3.4,0-6-0.5-8-1.4c-1.9-0.9-2.9-2.4-2.9-4.4c0-0.9,0.2-1.6,0.5-2.3
	c0.4-0.6,0.8-1.1,1.2-1.5c1.1,0.6,2.3,1.1,3.6,1.5c1.4,0.4,2.8,0.6,4.2,0.6c2,0,3.6-0.3,4.8-1c1.2-0.7,1.8-1.7,1.8-3.2v-0.9
	c-1.5,0.7-3.4,1-5.6,1c-1.7,0-3.3-0.3-4.8-0.8c-1.5-0.5-2.8-1.3-4-2.3c-1.1-1.1-2-2.4-2.7-4.1c-0.7-1.7-1-3.7-1-6
	c0-2.3,0.4-4.2,1.1-5.9c0.7-1.7,1.7-3.1,3-4.2c1.3-1.1,2.8-1.9,4.6-2.5C340.8,24.4,342.7,24.2,344.8,24.2L344.8,24.2z M348.3,32.2
	c-0.3-0.1-0.6-0.3-1.1-0.4c-0.5-0.1-1.1-0.2-1.9-0.2c-1.8,0-3.2,0.5-4.1,1.5c-0.9,1-1.4,2.5-1.4,4.4c0,2.2,0.5,3.7,1.4,4.7
	c0.9,0.9,2.1,1.4,3.5,1.4c1.5,0,2.7-0.4,3.6-1.1V32.2z"/>
<g>
	<path class="st0" d="M182.5,76.3c-0.7-1.8-1.7-3.3-2.9-4.5c-1.2-1.2-2.6-2.1-4.2-2.8c-1.6-0.6-3.3-0.9-5.1-0.9
		c-1,0-1.9,0.1-2.8,0.2c-0.8,0.1-1.7,0.4-2.6,0.8v-5.5c0-0.9-0.1-1.7-0.3-2.3c-0.2-0.6-0.6-1-1-1.4c-0.4-0.3-1-0.6-1.6-0.7
		c-0.7-0.1-1.4-0.2-2.2-0.2c-0.9,0-1.7,0.1-2.5,0.2c-0.8,0.1-1.4,0.3-1.8,0.4v29.7c0,1.8,0.8,3.3,2.5,4.5c1.2,0.9,2.6,1.6,4.3,2.1
		c1.7,0.6,3.8,0.9,6.2,0.9c2.3,0,4.3-0.3,6.2-0.9c1.9-0.6,3.5-1.5,4.8-2.7c1.3-1.2,2.3-2.7,3-4.5c0.7-1.8,1.1-3.9,1.1-6.3
		C183.6,80.2,183.2,78.1,182.5,76.3z M172.5,87.7c-0.9,1.2-2.3,1.8-4,1.8c-0.9,0-1.6-0.1-2.1-0.3c-0.6-0.2-1.1-0.4-1.5-0.6V76.4
		c0.6-0.3,1.2-0.5,1.8-0.7c0.5-0.1,1.2-0.2,1.9-0.2c1.6,0,2.9,0.6,3.9,1.7c1,1.2,1.4,2.9,1.4,5.2C173.9,84.8,173.4,86.5,172.5,87.7z
		"/>
	<path class="st0" d="M188.2,69.4c0.4-0.1,1-0.2,1.8-0.3c0.8-0.1,1.6-0.2,2.5-0.2c0.8,0,1.6,0.1,2.2,0.2c0.6,0.1,1.2,0.3,1.6,0.7
		c0.4,0.3,0.8,0.8,1,1.4c0.2,0.6,0.4,1.3,0.4,2.3v12c0,1.5,0.4,2.6,1.1,3.3c0.7,0.7,1.8,1,3.2,1c0.9,0,1.6-0.1,2.1-0.2
		c0.5-0.1,1-0.3,1.3-0.4V69.4c0.4-0.1,1-0.2,1.8-0.3c0.8-0.1,1.6-0.2,2.5-0.2c0.8,0,1.6,0.1,2.2,0.2c0.6,0.1,1.2,0.3,1.6,0.7
		c0.4,0.3,0.8,0.8,1,1.4c0.2,0.6,0.4,1.3,0.4,2.3v16.9c0,1.9-0.8,3.2-2.3,4.2c-1.3,0.8-2.9,1.4-4.7,1.9c-1.8,0.4-3.8,0.6-5.9,0.6
		c-2,0-3.9-0.2-5.5-0.7c-1.7-0.4-3.1-1.1-4.4-2.1c-1.2-0.9-2.2-2.1-2.8-3.6c-0.7-1.5-1-3.2-1-5.3V69.4L188.2,69.4z"/>
	<path class="st0" d="M237.8,78.9c0-1.2-0.3-2-1-2.5c-0.7-0.5-1.5-0.8-2.6-0.8c-0.7,0-1.5,0.1-2.2,0.3c-0.7,0.2-1.3,0.5-1.9,0.8V96
		c-0.4,0.1-1,0.2-1.8,0.3c-0.8,0.1-1.6,0.2-2.5,0.2c-0.8,0-1.6-0.1-2.2-0.2c-0.7-0.1-1.2-0.3-1.6-0.7c-0.4-0.3-0.8-0.8-1-1.4
		c-0.2-0.6-0.4-1.3-0.4-2.3V75.3c0-1,0.2-1.8,0.6-2.5c0.4-0.6,1-1.2,1.8-1.7c1.3-0.9,2.9-1.6,4.8-2.2c1.9-0.6,4-0.8,6.4-0.8
		c4.2,0,7.4,0.9,9.7,2.8c2.3,1.8,3.4,4.4,3.4,7.7V96c-0.4,0.1-1,0.2-1.8,0.3c-0.8,0.1-1.6,0.2-2.5,0.2c-0.8,0-1.6-0.1-2.2-0.2
		c-0.7-0.1-1.2-0.3-1.6-0.7c-0.4-0.3-0.8-0.8-1-1.4c-0.2-0.6-0.4-1.3-0.4-2.3V78.9L237.8,78.9z"/>
	<path class="st0" d="M270.3,78.9c0-1.2-0.3-2-1-2.5c-0.6-0.5-1.5-0.8-2.6-0.8c-0.7,0-1.5,0.1-2.2,0.3c-0.7,0.2-1.3,0.5-1.9,0.8V96
		c-0.4,0.1-1,0.2-1.8,0.3c-0.8,0.1-1.6,0.2-2.5,0.2c-0.8,0-1.6-0.1-2.2-0.2c-0.6-0.1-1.2-0.3-1.6-0.7c-0.4-0.3-0.8-0.8-1-1.4
		c-0.2-0.6-0.4-1.3-0.4-2.3V75.3c0-1,0.2-1.8,0.6-2.5c0.4-0.6,1-1.2,1.8-1.7c1.3-0.9,2.9-1.6,4.8-2.2c1.9-0.6,4-0.8,6.4-0.8
		c4.2,0,7.4,0.9,9.7,2.8c2.3,1.8,3.4,4.4,3.4,7.7V96c-0.4,0.1-1,0.2-1.8,0.3c-0.8,0.1-1.6,0.2-2.5,0.2c-0.8,0-1.6-0.1-2.2-0.2
		c-0.7-0.1-1.2-0.3-1.6-0.7c-0.4-0.3-0.8-0.8-1-1.4c-0.2-0.6-0.4-1.3-0.4-2.3V78.9L270.3,78.9z"/>
	<path class="st0" d="M289.1,89.1c-0.4-0.9-0.8-2-1.3-3.1c-0.5-1.2-0.9-2.5-1.4-4c-0.5-1.5-1-3.2-1.6-5.1c-0.5-1.9-1.1-4.1-1.7-6.6
		c0.5-0.5,1.2-1,2.1-1.4c0.9-0.4,1.8-0.6,2.9-0.6c1.3,0,2.4,0.3,3.2,0.8c0.9,0.5,1.5,1.6,1.9,3l4.4,15.3h0.2
		c0.4-1.3,0.9-2.6,1.3-4.1c0.4-1.5,0.8-3,1.3-4.6c0.4-1.6,0.8-3.2,1.1-4.7c0.4-1.6,0.7-3.1,0.9-4.7c1.3-0.7,2.8-1.1,4.4-1.1
		c1.3,0,2.4,0.3,3.2,0.8c0.9,0.6,1.3,1.5,1.3,2.9c0,1-0.1,2.2-0.4,3.5c-0.3,1.3-0.6,2.7-1,4.2c-0.4,1.5-0.9,3-1.5,4.6
		c-0.6,1.6-1.2,3.1-1.8,4.7c-0.6,1.5-1.3,3-1.9,4.3c-0.7,1.4-1.3,2.6-1.9,3.6c-1,1.8-2,3.3-2.9,4.5c-0.9,1.2-1.7,2.1-2.6,2.7
		c-0.8,0.6-1.6,1.1-2.5,1.3c-0.8,0.2-1.7,0.4-2.6,0.4c-1.6,0-2.8-0.5-3.8-1.4c-1-0.9-1.5-2.1-1.7-3.6c1.2-0.9,2.4-2,3.6-3.1
		c1.2-1.1,2.3-2.3,3.2-3.5c-0.6-0.2-1.3-0.6-2-1.3C290.7,92.3,290,91,289.1,89.1L289.1,89.1z"/>
</g>
<path class="st1" d="M143.5,92.2h-9.8c3.3-7.4,5.2-15.5,5.2-24.1c0-32.5-26.3-58.8-58.8-58.8c-32.5,0-58.8,26.3-58.8,58.8
	c0,8.6,1.9,16.8,5.2,24.1h-9.8c-1.5,0-2.7,1.2-2.7,2.7v0c0,1.5,1.2,2.7,2.7,2.7h12.6h19.4h6.8c-2.2-1.8-2.1-4.4-2.2-5.4h-3.3
	c-2.5-10.2-2.5-17.8,0-28c0-0.2-0.2-0.6-0.4-1.2c-0.3-0.8-0.7-1.7-1-3c-0.3-1.3,0.6-2.5,2-2.7c0.1,0,0.1,0,0.2,0c2-0.3,3,0,4,0.2
	c0.4,0.1,0.8,0.2,1.4,0.2c2.5-0.4,5-0.7,7.5-0.9c0.4-9,6.1-17.3,11.8-29.1c0.1-0.4,0.7-0.7,1.3-0.6c0.5,0.1,0.8,0.4,0.8,0.8h0v28.1
	c2.3,0,4.6,0,6.9,0V27.7h0c0-0.4,0.3-0.7,0.8-0.8c0.6-0.1,1.1,0.2,1.3,0.6C92.2,39.5,98,47.8,98.3,56.9c1.9,0.2,3.9,0.5,5.8,0.7
	c0.5,0,0.9-0.1,1.4-0.2c1-0.2,2-0.5,4-0.2c0.1,0,0.1,0,0.2,0c1.4,0.3,2.2,1.5,2,2.7c-0.3,1.3-0.7,2.2-1,3c-0.2,0.5-0.4,1-0.4,1.2
	c2.5,10.2,2.5,17.8,0,28h-2.8c0,2-0.6,3.8-2.2,5.4h6.4h19.4h12.6c1.5,0,2.7-1.2,2.7-2.7v0C146.2,93.5,145,92.2,143.5,92.2z"/>
<g>
	<path class="st2" d="M80.3,82.7c-1.1,0-2.2,0.3-2.5,0.9c-0.3,0.6,0,1.4,1.5,2.2l0,0l0.1,0.1l0,0c0.3,0.2,0.5,0.3,0.8,0.3
		c0.3,0,0.5-0.1,0.8-0.3l0,0l0.1,0c1.6-0.8,1.9-1.6,1.6-2.2C82.5,83,81.4,82.7,80.3,82.7z"/>
	<path class="st2" d="M75.4,78.3C73,80.7,70,77.9,70,77.9c-0.4-0.3-0.9-0.3-1.3,0.1c-0.3,0.4-0.3,0.9,0.1,1.3c0,0,4.3,3.9,7.9,0.3
		c0.3-0.3,0.3-0.9,0-1.3C76.3,77.9,75.8,77.9,75.4,78.3z"/>
	<path class="st2" d="M108.4,92.2c0-2.1-1-4-2.6-5.4c-1.5-1.3-3.6-2.1-5.8-2.1c-0.3,0-0.6,0-0.9,0c0.2-0.9,0.2-1.9,0.2-2.9
		c0-5.4-2.1-10.3-5.6-13.9c-0.5-0.5-1-0.9-1.5-1.4c2.1-4.5,3.5-11.3-1.2-19.8c-2.8-5.2-2.9-0.4-2.9,0.9V64c-2.4-1.1-5.2-1.8-8-1.8
		c-2.2,0-4.3,0.4-6.3,1.1V47.7c0-1.3-0.1-6-2.9-0.9c-4.3,7.9-3.5,14.3-1.6,18.8c-1,0.7-1.9,1.5-2.8,2.3c-3.5,3.6-5.6,8.5-5.6,13.9
		c0,1,0.1,2,0.2,2.9c-0.1,0-0.3,0-0.5,0c-2.2,0-4.3,0.8-5.8,2.1c-1.6,1.4-2.6,3.3-2.7,5.4c0,0,0,1.8,0.8,3.3
		c0.6,1.2,1.6,2.1,1.6,2.1c0.1,0.1,0.2,0.1,0.2,0.2c1.5,1.3,3.6,2.1,5.8,2.1c2.2,0,4.3-0.8,5.8-2.1c0.1-0.1,0.2-0.1,0.2-0.2h27.3
		c0.1,0.1,0.2,0.1,0.2,0.2c1.5,1.3,3.6,2.1,5.8,2.1c2.2,0,4.3-0.8,5.8-2.1c0.1-0.1,0.2-0.1,0.2-0.2c0,0,1.4-1.4,1.9-2.7
		C108.6,93.4,108.4,92.2,108.4,92.2z M66.2,93.1L66.2,93.1c0,0,0,0.1,0,0.1l0,0c0,0.1-0.1,0.2-0.1,0.3l0,0c-0.1,0.4-0.3,0.8-0.6,1.2
		l0,0c-0.1,0.1-0.1,0.2-0.2,0.3c-0.1,0.1-0.1,0.1-0.2,0.2l0,0L65,95.3l0,0l-0.1,0.1l0,0c0,0-0.1,0.1-0.1,0.1l0,0l-0.1,0.1l0,0
		l-0.1,0.1l0,0l-0.1,0.1l0,0l-0.1,0.1l0,0l-0.1,0.1l0,0L64.3,96l0,0L64.2,96l0,0l-0.1,0.1h0L64,96.2l0,0l-0.1,0l0,0l-0.1,0.1l0,0
		l-0.1,0.1l0,0l-0.1,0.1l0,0l-0.1,0l-0.1,0l-0.1,0l0,0l-0.1,0l0,0l-0.1,0l0,0l-0.1,0l0,0l-0.1,0l0,0l-0.1,0l0,0l0,0l-0.1,0l0,0
		l-0.1,0l0,0l-0.1,0l0,0l-0.1,0l0,0l0,0l-0.1,0c0,0-0.1,0-0.1,0l0,0l-0.1,0l0,0l-0.1,0l0,0l-0.1,0l0,0l-0.1,0l0,0l-0.1,0l0,0
		c0,0-0.1,0-0.1,0l0,0c0,0-0.1,0-0.1,0l0,0c0,0-0.1,0-0.1,0h0c0,0-0.1,0-0.1,0c-3.1,0-5.6-2.1-5.6-4.7v0v0v0v0v0v0l0-0.1v0l0,0v0v0
		v0l0,0v0v0c0,0,0-0.1,0-0.1l0,0l0-0.1l0,0l0,0l0,0l0,0l0-0.1l0,0l0,0l0,0l0,0l0,0l0,0l0,0v0l0-0.1l0,0l0,0l0,0l0-0.1l0-0.1l0,0l0,0
		l0-0.1l0,0l0,0l0-0.1l0-0.1l0-0.1l0,0l0,0l0-0.1l0,0l0,0l0-0.1l0,0l0-0.1l0,0l0,0l0-0.1l0-0.1l0-0.1l0,0l0-0.1l0-0.1l0,0l0,0v0
		l0-0.1v0l0,0l0,0l0-0.1l0,0l0-0.1l0,0l0,0l0,0l0,0l0-0.1l0,0l0,0l0-0.1l0,0l0,0l0,0l0,0l0,0l0,0l0,0l0,0l0,0l0,0l0-0.1l0,0l0,0l0,0
		l0,0l0,0l0,0l0,0l0-0.1l0,0l0,0l0-0.1l0,0l0,0l0,0l0,0l0,0l0,0l0,0l0,0l0.1,0l0,0l0.1,0l0,0l0,0l0,0l0.1,0l0.1,0l0,0l0,0l0.1,0l0,0
		l0,0l0,0l0.1,0l0.1,0l0,0l0,0l0,0l0.1,0l0,0l0,0l0.1,0l0,0l0,0l0.1,0l0,0l0,0l0.1,0l0,0l0.1,0l0.1,0l0.1,0l0,0l0,0l0.1,0l0,0l0.1,0
		l0.1,0l0,0l0,0l0.1,0l0,0l0.1,0l0,0l0,0l0.1,0l0.1,0l0.1,0l0,0l0.1,0l0.1,0l0.1,0l0,0l0.1,0l0.1,0l0,0l0.1,0l0,0l0.1,0l0,0l0.1,0
		l0,0l0.1,0l0,0l0.1,0l0,0l0.1,0l0,0l0.1,0l0.1,0l0,0l0.1,0l0.1,0l0,0l0,0l0.1,0l0,0l0.1,0l0,0l0,0l0.1,0l0.1,0l0,0l0.1,0l0,0l0.1,0
		l0,0l0.1,0l0,0l0,0l0,0l0,0l0,0l0,0l0.1,0l0,0l0,0l0,0l0,0l0,0h0l0,0l0,0l0,0l0.1,0l0,0l0,0h0l0.1,0h0l0,0h0h0l0,0h0h0h0h0l0,0h0h0
		h0l0,0h0h0l0.1,0h0h0h0h0h0h0h0h0h0h0h0h0h0h0l0.1,0h0h0l0,0h0h0h0l0,0h0h0l0.1,0l0,0l0.1,0l0,0l0,0l0,0h0l0,0l0,0l0,0l0,0l0,0
		l0.1,0l0,0l0,0l0,0l0,0l0,0l0,0l0.1,0l0,0l0.1,0l0,0l0.1,0l0,0l0.1,0l0.1,0l0,0l0.1,0l0,0l0,0l0.1,0v0c2.4,0.5,4.3,2.4,4.3,4.6
		C66.2,92.6,66.2,92.9,66.2,93.1z M91.8,90.3c-3,1.5-7.1,1.8-11.8,1.8c-4.4,0-8.3-0.3-11.2-1.6c-0.4-1.5-1.2-2.7-2.4-3.7
		c-0.7-0.6-1.4-1-2.2-1.4c-0.3-1-0.5-2.2-0.5-3.6c0-4.7,1.8-8.9,4.8-11.9c0.6-0.6,1.3-1.2,2-1.8l0,0l0.1-0.1l0,0l0,0l0,0l0,0l0,0
		l0,0l0,0l0,0l0,0l0.1-0.1l0,0l0,0l0,0l0,0l0,0l0,0l0,0l0,0l0,0l0.1-0.1l0.1,0l0.1,0l0.1,0l0.1,0l0,0l0.1-0.1l0.1,0l0.1-0.1l0.1,0
		l0.1,0l0.1,0l0.1,0l0.1,0l0,0l0.1,0l0,0l0.1,0l0.1,0l0.1,0l0.1,0l0.1,0l0.1,0l0.1,0l0.1,0l0.1,0l0,0l0,0l0.1,0l0.1,0l0.1,0l0.1,0
		l0.1,0l0,0l0.1,0l0,0l0.1,0l0.1,0l0,0l0,0l0.1,0l0.1,0l0,0l0,0l0.1,0c1.9-0.8,4.1-1.3,6.3-1.3c2.9,0,5.6,0.8,8,2.2l0,0l0,0l0.1,0.1
		l0,0l0,0l0.1,0l0,0l0,0l0,0l0.1,0l0,0l0,0l0,0l0.1,0.1l0,0l0,0l0,0l0.1,0.1l0,0l0.1,0.1l0,0l0,0l0,0l0,0l0,0l0,0l0,0l0,0l0,0l0,0
		l0,0l0,0l0,0l0,0l0,0l0.1,0.1l0,0l0,0l0,0l0,0l0.1,0l0,0l0,0l0,0l0,0l0,0l0,0l0,0l0,0l0,0l0,0l0,0l0.1,0.1l0,0l0,0l0,0l0.1,0.1l0,0
		l0,0l0,0l0,0l0,0l0,0l0,0l0,0l0,0l0,0c0.3,0.3,0.6,0.5,0.9,0.8c3,3,4.8,7.3,4.8,11.9c0,1.5-0.2,2.7-0.5,3.8
		c-0.6,0.3-1.2,0.7-1.7,1.1C93.1,87.8,92.2,89,91.8,90.3z M105.5,92.3L105.5,92.3L105.5,92.3L105.5,92.3L105.5,92.3L105.5,92.3
		c0,2.6-2.5,4.8-5.6,4.8s-5.6-2.1-5.6-4.7v0v0v0v0v0v0l0-0.1v0v0v0l0,0l0-0.1l0,0c0.1-2,1.6-3.6,3.7-4.3v0l0,0l0,0l0.1,0l0,0l0,0
		l0.1,0l0,0l0.1,0l0,0l0,0l0.1,0l0.1,0l0,0l0,0l0.1,0l0,0l0.1,0l0,0l0,0l0.1,0l0.1,0l0,0l0.1,0l0,0l0.1,0l0,0l0.1,0l0,0l0,0l0,0l0,0
		l0,0l0,0l0.1,0l0,0l0,0l0,0l0,0l0,0h0l0,0l0,0l0,0l0.1,0l0,0l0,0h0l0.1,0h0l0,0h0h0l0,0h0h0h0h0l0,0h0h0h0l0,0h0h0l0.1,0h0h0h0h0h0
		h0h0h0h0h0h0h0h0h0l0.1,0h0h0l0,0h0h0h0l0,0h0h0l0.1,0l0,0l0.1,0l0,0l0,0l0,0h0l0,0l0,0l0,0l0,0l0,0l0.1,0l0,0l0,0l0,0l0,0l0,0l0,0
		l0.1,0l0,0l0.1,0l0,0l0.1,0l0,0l0.1,0l0.1,0l0,0l0.1,0l0,0l0,0l0.1,0l0,0l0.1,0l0,0l0,0l0,0l0.1,0l0,0l0.1,0l0,0l0.1,0l0,0l0,0
		l0.1,0l0,0l0.1,0l0.1,0l0,0l0.1,0l0,0l0.1,0l0.1,0l0,0l0.1,0l0.1,0l0.1,0l0,0l0,0l0.1,0l0.1,0l0,0l0.1,0l0,0l0.1,0l0,0l0,0l0,0
		l0.1,0l0,0l0,0l0.1,0l0.1,0l0.1,0l0,0l0.1,0l0.1,0l0,0l0,0l0.1,0l0.1,0l0,0l0,0l0.1,0l0,0l0,0l0.1,0l0,0l0,0l0.1,0l0,0l0,0l0,0
		l0.1,0l0,0l0,0l0,0l0.1,0l0,0l0,0l0,0l0,0l0,0l0,0l0,0l0,0l0.1,0.1l0,0l0,0l0,0l0,0l0,0l0,0l0,0l0,0l0,0l0,0l0,0.1l0,0l0,0l0,0.1
		l0,0l0,0l0,0l0,0l0,0l0,0.1l0,0l0,0.1l0,0l0,0l0,0l0,0l0,0l0,0l0,0l0,0.1l0,0l0,0l0,0.1l0,0l0,0l0,0l0,0l0,0.1l0,0l0,0.1l0,0l0,0v0
		l0,0.1v0l0,0l0,0l0,0.1l0,0.1l0,0l0,0.1l0,0.1l0,0.1l0,0l0,0l0,0.1l0,0l0,0.1l0,0l0,0l0,0.1l0,0l0,0l0,0.1l0,0.1l0,0.1l0,0l0,0
		l0,0.1l0,0l0,0l0,0.1l0,0.1l0,0l0,0l0,0l0,0.1v0l0,0l0,0.1l0,0l0,0.1l0,0l0,0.1l0,0v0L105.5,92.3L105.5,92.3L105.5,92.3L105.5,92.3
		z"/>
	<path class="st2" d="M90.6,77.9c0,0-3,2.8-5.4,0.4c-0.3-0.3-0.9-0.3-1.3,0c-0.3,0.3-0.3,0.9,0,1.3c3.6,3.6,7.8-0.3,7.9-0.3
		c0.4-0.3,0.4-0.9,0.1-1.3C91.5,77.6,90.9,77.5,90.6,77.9z"/>
</g>
</svg>
