<?xml version="1.0" encoding="utf-8"?>
<!-- Generator: Adobe Illustrator 23.0.1, SVG Export Plug-In . SVG Version: 6.00 Build 0)  -->
<svg version="1.1" id="Layer_1" xmlns="http://www.w3.org/2000/svg" xmlns:xlink="http://www.w3.org/1999/xlink" x="0px" y="0px"
	 viewBox="0 0 431.8 109" style="enable-background:new 0 0 431.8 109;" xml:space="preserve">
<style type="text/css">
	.st0{fill-rule:evenodd;clip-rule:evenodd;fill:#FFFFFF;}
	.st1{fill-rule:evenodd;clip-rule:evenodd;fill:#7FBB42;}
	.st2{fill:#53495A;}
	.st3{fill:#9B999D;}
</style>
<path class="st0" d="M118.6,89.9c3-6.4,4.8-13.6,4.8-21.2c0-27.4-22.2-49.6-49.6-49.6S24.2,41.3,24.2,68.7c0,7.6,1.7,14.8,4.8,21.2
	l10.9-0.3l14.3,4.2l19.4-4l19.8,4l17.3-4.7L118.6,89.9z"/>
<path class="st1" d="M166.4,31c0-1.2-0.3-2-1-2.5c-0.6-0.5-1.5-0.8-2.6-0.8c-0.7,0-1.5,0.1-2.2,0.3c-0.7,0.2-1.3,0.5-1.9,0.8v19.3
	c-0.4,0.1-1,0.2-1.8,0.3s-1.6,0.2-2.5,0.2c-0.8,0-1.5-0.1-2.2-0.2c-0.7-0.1-1.2-0.3-1.6-0.7c-0.4-0.3-0.8-0.8-1-1.4
	c-0.2-0.6-0.4-1.3-0.4-2.3V27.5c0-1,0.2-1.8,0.6-2.5c0.4-0.6,1-1.2,1.8-1.7c1.3-0.9,2.9-1.6,4.8-2.2c1.9-0.6,4-0.8,6.4-0.8
	c4.2,0,7.4,0.9,9.7,2.8c2.3,1.8,3.4,4.4,3.4,7.7v17.4c-0.4,0.1-1,0.2-1.8,0.3s-1.6,0.2-2.5,0.2c-0.8,0-1.6-0.1-2.2-0.2
	c-0.6-0.1-1.2-0.3-1.6-0.7c-0.4-0.3-0.8-0.8-1-1.4c-0.2-0.6-0.4-1.3-0.4-2.3V31L166.4,31z M193.3,42.2c0.6,0,1.3-0.1,2.1-0.2
	c0.8-0.1,1.3-0.3,1.7-0.5V37l-4,0.3c-1,0.1-1.9,0.3-2.6,0.7c-0.7,0.4-1,0.9-1,1.7c0,0.7,0.3,1.3,0.9,1.8
	C191,41.9,192,42.2,193.3,42.2L193.3,42.2z M192.9,20.3c2,0,3.8,0.2,5.5,0.6s3.1,1,4.2,1.9c1.2,0.8,2.1,1.9,2.7,3.2
	c0.6,1.3,0.9,2.8,0.9,4.5V43c0,1-0.3,1.8-0.8,2.4c-0.5,0.6-1.2,1.1-1.9,1.6c-2.4,1.4-5.8,2.2-10.2,2.2c-2,0-3.7-0.2-5.3-0.6
	c-1.6-0.4-2.9-0.9-4.1-1.7c-1.1-0.7-2-1.7-2.6-2.8c-0.6-1.2-0.9-2.5-0.9-4c0-2.6,0.8-4.5,2.3-5.9s3.9-2.2,7.1-2.6l7.3-0.8v-0.4
	c0-1.1-0.5-1.8-1.4-2.3s-2.3-0.7-4.1-0.7c-1.4,0-2.8,0.1-4.1,0.4s-2.5,0.7-3.6,1.1c-0.5-0.3-0.9-0.8-1.2-1.5s-0.5-1.4-0.5-2.1
	c0-1,0.2-1.7,0.7-2.3c0.5-0.6,1.2-1.1,2.1-1.5c1.1-0.4,2.3-0.7,3.8-0.9C190.2,20.4,191.6,20.3,192.9,20.3L192.9,20.3z M224.5,20.3
	c2.2,0,4.3,0.3,6.2,0.9s3.6,1.5,4.9,2.6c1.4,1.2,2.5,2.7,3.2,4.5c0.8,1.8,1.2,3.9,1.2,6.4c0,2.4-0.3,4.5-1,6.2
	c-0.7,1.8-1.6,3.3-2.8,4.5s-2.7,2.1-4.4,2.7c-1.7,0.6-3.6,0.9-5.8,0.9c-1.6,0-3.1-0.2-4.5-0.7v9.2c-0.4,0.1-1,0.2-1.8,0.4
	c-0.8,0.1-1.7,0.2-2.5,0.2s-1.6-0.1-2.2-0.2c-0.6-0.1-1.2-0.3-1.6-0.7c-0.4-0.3-0.8-0.8-1-1.4c-0.2-0.6-0.3-1.3-0.3-2.3V26.9
	c0-1,0.2-1.8,0.6-2.5c0.4-0.6,1-1.2,1.8-1.7c1.2-0.7,2.6-1.3,4.3-1.8C220.4,20.5,222.4,20.3,224.5,20.3L224.5,20.3z M224.6,41.5
	c3.8,0,5.7-2.3,5.7-6.9c0-2.4-0.5-4.1-1.4-5.3c-0.9-1.2-2.3-1.7-4.1-1.7c-0.7,0-1.3,0.1-1.9,0.3c-0.6,0.2-1,0.4-1.4,0.6v12.3
	c0.4,0.2,0.9,0.4,1.4,0.6C223.4,41.5,224,41.5,224.6,41.5L224.6,41.5z M257.1,20.3c2.2,0,4.3,0.3,6.2,0.9c1.9,0.6,3.6,1.5,4.9,2.6
	c1.4,1.2,2.5,2.7,3.2,4.5c0.8,1.8,1.2,3.9,1.2,6.4c0,2.4-0.3,4.5-1,6.2c-0.7,1.8-1.6,3.3-2.8,4.5c-1.2,1.2-2.7,2.1-4.4,2.7
	c-1.7,0.6-3.6,0.9-5.8,0.9c-1.6,0-3.1-0.2-4.5-0.7v9.2c-0.4,0.1-1,0.2-1.8,0.4c-0.8,0.1-1.7,0.2-2.5,0.2s-1.6-0.1-2.2-0.2
	c-0.6-0.1-1.2-0.3-1.6-0.7c-0.4-0.3-0.8-0.8-1-1.4c-0.2-0.6-0.3-1.3-0.3-2.3V26.9c0-1,0.2-1.8,0.6-2.5c0.4-0.6,1-1.2,1.8-1.7
	c1.2-0.7,2.6-1.3,4.3-1.8C253,20.5,254.9,20.3,257.1,20.3L257.1,20.3z M257.2,41.5c3.8,0,5.7-2.3,5.7-6.9c0-2.4-0.5-4.1-1.4-5.3
	c-0.9-1.2-2.3-1.7-4.1-1.7c-0.7,0-1.3,0.1-1.9,0.3c-0.6,0.2-1,0.4-1.4,0.6v12.3c0.4,0.2,0.9,0.4,1.4,0.6
	C256,41.5,256.6,41.5,257.2,41.5L257.2,41.5z M286.9,48.1c-0.4,0.1-1,0.2-1.8,0.3s-1.6,0.2-2.4,0.2s-1.6-0.1-2.2-0.2
	c-0.7-0.1-1.2-0.3-1.6-0.7c-0.4-0.3-0.8-0.8-1-1.4c-0.2-0.6-0.4-1.3-0.4-2.3V21.5c0.4-0.1,1-0.2,1.8-0.3c0.8-0.1,1.6-0.2,2.4-0.2
	s1.6,0.1,2.2,0.2c0.7,0.1,1.2,0.3,1.6,0.7c0.4,0.3,0.8,0.8,1,1.4s0.4,1.3,0.4,2.3V48.1L286.9,48.1z M310.1,31c0-1.2-0.3-2-1-2.5
	c-0.6-0.5-1.5-0.8-2.6-0.8c-0.7,0-1.5,0.1-2.2,0.3c-0.7,0.2-1.3,0.5-1.9,0.8v19.3c-0.4,0.1-1,0.2-1.8,0.3s-1.6,0.2-2.5,0.2
	c-0.8,0-1.6-0.1-2.2-0.2c-0.7-0.1-1.2-0.3-1.6-0.7c-0.4-0.3-0.8-0.8-1-1.4c-0.2-0.6-0.4-1.3-0.4-2.3V27.5c0-1,0.2-1.8,0.6-2.5
	c0.4-0.6,1-1.2,1.8-1.7c1.3-0.9,2.9-1.6,4.8-2.2s4-0.8,6.4-0.8c4.2,0,7.4,0.9,9.7,2.8c2.3,1.8,3.4,4.4,3.4,7.7v17.4
	c-0.4,0.1-1,0.2-1.8,0.3s-1.6,0.2-2.5,0.2c-0.8,0-1.6-0.1-2.2-0.2c-0.6-0.1-1.2-0.3-1.6-0.7c-0.4-0.3-0.8-0.8-1-1.4
	c-0.2-0.6-0.4-1.3-0.4-2.3L310.1,31L310.1,31z M338.6,20.3c2.1,0,4,0.3,5.8,0.8c1.7,0.5,3.2,1.2,4.4,2.1c0.7,0.5,1.3,1.1,1.8,1.7
	c0.4,0.6,0.6,1.4,0.6,2.5v19.5c0,2-0.4,3.7-1.1,5.1c-0.7,1.4-1.8,2.6-3,3.6c-1.3,0.9-2.8,1.6-4.5,2.1c-1.7,0.4-3.6,0.7-5.5,0.7
	c-3.4,0-6-0.5-8-1.4c-1.9-0.9-2.9-2.4-2.9-4.4c0-0.9,0.2-1.6,0.5-2.3c0.4-0.6,0.8-1.1,1.2-1.5c1.1,0.6,2.3,1.1,3.6,1.5
	s2.8,0.6,4.2,0.6c2,0,3.6-0.3,4.8-1c1.2-0.7,1.8-1.7,1.8-3.2v-0.9c-1.5,0.7-3.4,1-5.6,1c-1.7,0-3.3-0.3-4.8-0.8s-2.8-1.3-4-2.3
	c-1.1-1.1-2-2.4-2.7-4.1c-0.7-1.7-1-3.7-1-6s0.4-4.2,1.1-5.9c0.7-1.7,1.7-3.1,3-4.2c1.3-1.1,2.8-1.9,4.6-2.5
	C334.6,20.5,336.5,20.3,338.6,20.3L338.6,20.3z M342.1,28.3c-0.3-0.1-0.6-0.3-1.1-0.4s-1.1-0.2-1.9-0.2c-1.8,0-3.2,0.5-4.1,1.5
	s-1.4,2.5-1.4,4.4c0,2.2,0.5,3.7,1.4,4.7c0.9,0.9,2.1,1.4,3.5,1.4c1.5,0,2.7-0.4,3.6-1.1V28.3z"/>
<g>
	<path class="st1" d="M176.3,72.4c-0.7-1.8-1.7-3.3-2.9-4.5s-2.6-2.1-4.2-2.8c-1.6-0.6-3.3-0.9-5.1-0.9c-1,0-1.9,0.1-2.8,0.2
		c-0.8,0.1-1.7,0.4-2.6,0.8v-5.5c0-0.9-0.1-1.7-0.3-2.3s-0.6-1-1-1.4c-0.4-0.3-1-0.6-1.6-0.7c-0.7-0.1-1.4-0.2-2.2-0.2
		c-0.9,0-1.7,0.1-2.5,0.2c-0.8,0.1-1.4,0.3-1.8,0.4v29.7c0,1.8,0.8,3.3,2.5,4.5c1.2,0.9,2.6,1.6,4.3,2.1c1.7,0.6,3.8,0.9,6.2,0.9
		c2.3,0,4.3-0.3,6.2-0.9s3.5-1.5,4.8-2.7s2.3-2.7,3-4.5s1.1-3.9,1.1-6.3C177.4,76.3,177.1,74.2,176.3,72.4z M166.3,83.8
		c-0.9,1.2-2.3,1.8-4,1.8c-0.9,0-1.6-0.1-2.1-0.3c-0.6-0.2-1.1-0.4-1.5-0.6V72.5c0.6-0.3,1.2-0.5,1.8-0.7c0.5-0.1,1.2-0.2,1.9-0.2
		c1.6,0,2.9,0.6,3.9,1.7c1,1.2,1.4,2.9,1.4,5.2C167.7,80.9,167.2,82.6,166.3,83.8z"/>
	<path class="st1" d="M182,65.5c0.4-0.1,1-0.2,1.8-0.3c0.8-0.1,1.6-0.2,2.5-0.2c0.8,0,1.6,0.1,2.2,0.2c0.6,0.1,1.2,0.3,1.6,0.7
		c0.4,0.3,0.8,0.8,1,1.4s0.4,1.3,0.4,2.3v12c0,1.5,0.4,2.6,1.1,3.3c0.7,0.7,1.8,1,3.2,1c0.9,0,1.6-0.1,2.1-0.2s1-0.3,1.3-0.4V65.5
		c0.4-0.1,1-0.2,1.8-0.3c0.8-0.1,1.6-0.2,2.5-0.2c0.8,0,1.6,0.1,2.2,0.2c0.6,0.1,1.2,0.3,1.6,0.7c0.4,0.3,0.8,0.8,1,1.4
		s0.4,1.3,0.4,2.3v16.9c0,1.9-0.8,3.2-2.3,4.2c-1.3,0.8-2.9,1.4-4.7,1.9c-1.8,0.4-3.8,0.6-5.9,0.6c-2,0-3.9-0.2-5.5-0.7
		c-1.7-0.4-3.1-1.1-4.4-2.1c-1.2-0.9-2.2-2.1-2.8-3.6c-0.7-1.5-1-3.2-1-5.3v-16H182z"/>
	<path class="st1" d="M231.6,75c0-1.2-0.3-2-1-2.5s-1.5-0.8-2.6-0.8c-0.7,0-1.5,0.1-2.2,0.3c-0.7,0.2-1.3,0.5-1.9,0.8v19.3
		c-0.4,0.1-1,0.2-1.8,0.3c-0.8,0.1-1.6,0.2-2.5,0.2c-0.8,0-1.6-0.1-2.2-0.2c-0.7-0.1-1.2-0.3-1.6-0.7c-0.4-0.3-0.8-0.8-1-1.4
		s-0.4-1.3-0.4-2.3V71.4c0-1,0.2-1.8,0.6-2.5c0.4-0.6,1-1.2,1.8-1.7c1.3-0.9,2.9-1.6,4.8-2.2c1.9-0.6,4-0.8,6.4-0.8
		c4.2,0,7.4,0.9,9.7,2.8c2.3,1.8,3.4,4.4,3.4,7.7v17.4c-0.4,0.1-1,0.2-1.8,0.3c-0.8,0.1-1.6,0.2-2.5,0.2c-0.8,0-1.6-0.1-2.2-0.2
		c-0.7-0.1-1.2-0.3-1.6-0.7c-0.4-0.3-0.8-0.8-1-1.4s-0.4-1.3-0.4-2.3V75L231.6,75z"/>
	<path class="st1" d="M264.1,75c0-1.2-0.3-2-1-2.5c-0.6-0.5-1.5-0.8-2.6-0.8c-0.7,0-1.5,0.1-2.2,0.3c-0.7,0.2-1.3,0.5-1.9,0.8v19.3
		c-0.4,0.1-1,0.2-1.8,0.3c-0.8,0.1-1.6,0.2-2.5,0.2c-0.8,0-1.6-0.1-2.2-0.2c-0.6-0.1-1.2-0.3-1.6-0.7c-0.4-0.3-0.8-0.8-1-1.4
		s-0.4-1.3-0.4-2.3V71.4c0-1,0.2-1.8,0.6-2.5c0.4-0.6,1-1.2,1.8-1.7c1.3-0.9,2.9-1.6,4.8-2.2c1.9-0.6,4-0.8,6.4-0.8
		c4.2,0,7.4,0.9,9.7,2.8c2.3,1.8,3.4,4.4,3.4,7.7v17.4c-0.4,0.1-1,0.2-1.8,0.3c-0.8,0.1-1.6,0.2-2.5,0.2c-0.8,0-1.6-0.1-2.2-0.2
		c-0.7-0.1-1.2-0.3-1.6-0.7c-0.4-0.3-0.8-0.8-1-1.4s-0.4-1.3-0.4-2.3V75L264.1,75z"/>
	<path class="st1" d="M282.9,85.2c-0.4-0.9-0.8-2-1.3-3.1c-0.5-1.2-0.9-2.5-1.4-4s-1-3.2-1.6-5.1c-0.5-1.9-1.1-4.1-1.7-6.6
		c0.5-0.5,1.2-1,2.1-1.4s1.8-0.6,2.9-0.6c1.3,0,2.4,0.3,3.2,0.8c0.9,0.5,1.5,1.6,1.9,3l4.4,15.3h0.2c0.4-1.3,0.9-2.6,1.3-4.1
		s0.8-3,1.3-4.6c0.4-1.6,0.8-3.2,1.1-4.7c0.4-1.6,0.7-3.1,0.9-4.7c1.3-0.7,2.8-1.1,4.4-1.1c1.3,0,2.4,0.3,3.2,0.8
		c0.9,0.6,1.3,1.5,1.3,2.9c0,1-0.1,2.2-0.4,3.5s-0.6,2.7-1,4.2s-0.9,3-1.5,4.6s-1.2,3.1-1.8,4.7c-0.6,1.5-1.3,3-1.9,4.3
		c-0.7,1.4-1.3,2.6-1.9,3.6c-1,1.8-2,3.3-2.9,4.5s-1.7,2.1-2.6,2.7c-0.8,0.6-1.6,1.1-2.5,1.3c-0.8,0.2-1.7,0.4-2.6,0.4
		c-1.6,0-2.8-0.5-3.8-1.4s-1.5-2.1-1.7-3.6c1.2-0.9,2.4-2,3.6-3.1s2.3-2.3,3.2-3.5c-0.6-0.2-1.3-0.6-2-1.3
		C284.6,88.4,283.8,87.1,282.9,85.2L282.9,85.2z"/>
</g>
<path class="st2" d="M137.3,88.3h-9.8c3.3-7.4,5.2-15.5,5.2-24.1c0-32.5-26.3-58.8-58.8-58.8S15.1,31.7,15.1,64.2
	c0,8.6,1.9,16.8,5.2,24.1h-9.8c-1.5,0-2.7,1.2-2.7,2.7l0,0c0,1.5,1.2,2.7,2.7,2.7h12.6h19.4h6.8C47,92,47.1,89.4,47,88.3h-3.3
	c-2.5-10.2-2.5-17.8,0-28c0-0.2-0.2-0.6-0.4-1.2c-0.3-0.8-0.7-1.7-1-3s0.6-2.5,2-2.7c0.1,0,0.1,0,0.2,0c2-0.3,3,0,4,0.2
	c0.4,0.1,0.8,0.2,1.4,0.2c2.5-0.4,5-0.7,7.5-0.9c0.4-9,6.1-17.3,11.8-29.1c0.1-0.4,0.7-0.7,1.3-0.6c0.5,0.1,0.8,0.4,0.8,0.8l0,0v28
	c2.3,0,4.6,0,6.9,0V23.8l0,0c0-0.4,0.3-0.7,0.8-0.8c0.6-0.1,1.1,0.2,1.3,0.6C86,35.6,91.8,43.9,92.1,53c1.9,0.2,3.9,0.5,5.8,0.7
	c0.5,0,0.9-0.1,1.4-0.2c1-0.2,2-0.5,4-0.2c0.1,0,0.1,0,0.2,0c1.4,0.3,2.2,1.5,2,2.7c-0.3,1.3-0.7,2.2-1,3c-0.2,0.5-0.4,1-0.4,1.2
	c2.5,10.2,2.5,17.8,0,28h-2.8c0,2-0.6,3.8-2.2,5.4h6.4h19.4h12.6c1.5,0,2.7-1.2,2.7-2.7l0,0C140,89.6,138.8,88.3,137.3,88.3z"/>
<g>
	<path class="st2" d="M74.1,78.8c-1.1,0-2.2,0.3-2.5,0.9s0,1.4,1.5,2.2l0,0l0.1,0.1l0,0c0.3,0.2,0.5,0.3,0.8,0.3s0.5-0.1,0.8-0.3
		l0,0h0.1c1.6-0.8,1.9-1.6,1.6-2.2C76.3,79.1,75.2,78.8,74.1,78.8z"/>
	<path class="st2" d="M69.2,74.4c-2.4,2.4-5.4-0.4-5.4-0.4c-0.4-0.3-0.9-0.3-1.3,0.1c-0.3,0.4-0.3,0.9,0.1,1.3c0,0,4.3,3.9,7.9,0.3
		c0.3-0.3,0.3-0.9,0-1.3C70.1,74,69.6,74,69.2,74.4z"/>
	<path class="st2" d="M102.2,88.3c0-2.1-1-4-2.6-5.4c-1.5-1.3-3.6-2.1-5.8-2.1c-0.3,0-0.6,0-0.9,0C93,80,93.1,79,93.1,78
		c0-5.4-2.1-10.3-5.6-13.9c-0.5-0.5-1-0.9-1.5-1.4c2.1-4.5,3.5-11.3-1.2-19.8c-2.8-5.2-2.9-0.4-2.9,0.9v16.3c-2.4-1.1-5.2-1.8-8-1.8
		c-2.2,0-4.3,0.4-6.3,1.1V43.8c0-1.3-0.1-6-2.9-0.9c-4.3,7.9-3.5,14.3-1.6,18.8c-1,0.7-1.9,1.5-2.8,2.3c-3.5,3.6-5.6,8.5-5.6,13.9
		c0,1,0.1,2,0.2,2.9c-0.1,0-0.3,0-0.5,0c-2.2,0-4.3,0.8-5.8,2.1c-1.6,1.4-2.6,3.3-2.7,5.4c0,0,0,1.8,0.8,3.3
		c0.6,1.2,1.6,2.1,1.6,2.1c0.1,0.1,0.2,0.1,0.2,0.2c1.5,1.3,3.6,2.1,5.8,2.1s4.3-0.8,5.8-2.1c0.1-0.1,0.2-0.1,0.2-0.2h27.3
		c0.1,0.1,0.2,0.1,0.2,0.2c1.5,1.3,3.6,2.1,5.8,2.1c2.2,0,4.3-0.8,5.8-2.1c0.1-0.1,0.2-0.1,0.2-0.2c0,0,1.4-1.4,1.9-2.7
		C102.4,89.5,102.2,88.3,102.2,88.3z M60,89.2L60,89.2L60,89.2L60,89.2c0,0.2-0.1,0.3-0.1,0.4l0,0c-0.1,0.4-0.3,0.8-0.6,1.2l0,0
		c-0.1,0.1-0.1,0.2-0.2,0.3c-0.1,0.1-0.1,0.1-0.2,0.2l0,0l-0.1,0.1l0,0l-0.1,0.1l0,0l-0.1,0.1l0,0l-0.1,0.1l0,0l-0.1,0.1l0,0
		l-0.1,0.1l0,0L58.2,92l0,0l0,0l0,0h-0.1l0,0L58,92.1l0,0l-0.1,0.1l0,0l-0.1,0.1l0,0h-0.1l0,0l-0.1,0.1l0,0l-0.1,0.1l0,0l-0.1,0.1
		l0,0h-0.1h-0.1h-0.1l0,0H57l0,0h-0.1l0,0h-0.1l0,0h-0.1l0,0h-0.1l0,0l0,0h-0.1l0,0h-0.1l0,0h-0.1l0,0L56,93l0,0l0,0h-0.1h-0.1l0,0
		h-0.1l0,0h-0.1l0,0h-0.1l0,0h-0.1l0,0h-0.1l0,0h-0.1l0,0h-0.1l0,0H55l0,0h-0.1c-3.1,0-5.6-2.1-5.6-4.7l0,0l0,0l0,0l0,0l0,0l0,0
		v-0.1l0,0l0,0l0,0l0,0l0,0l0,0l0,0l0,0v-0.1l0,0V88l0,0l0,0l0,0l0,0v-0.1l0,0l0,0l0,0l0,0l0,0l0,0l0,0l0,0v-0.1l0,0l0,0l0,0v-0.1
		v-0.1l0,0l0,0v-0.1l0,0l0,0v-0.1v-0.1v-0.1l0,0l0,0v-0.1l0,0l0,0V87l0,0v-0.1l0,0l0,0v-0.1v-0.1v-0.1l0,0v-0.1v-0.1l0,0l0,0l0,0
		v-0.1l0,0l0,0l0,0v-0.1l0,0v-0.1l0,0l0,0l0,0l0,0V86l0,0l0,0v-0.1l0,0l0,0l0,0l0,0l0,0l0,0l0,0l0,0l0,0l0,0v-0.1l0,0l0,0l0,0l0,0
		l0,0l0,0l0,0v-0.1l0,0l0,0v-0.1l0,0l0,0l0,0l0,0l0,0l0,0l0,0l0,0h0.1l0,0h0.1l0,0l0,0l0,0h0.1h0.1l0,0l0,0h0.1l0,0l0,0l0,0h0.1H50
		l0,0l0,0l0,0h0.1l0,0l0,0h0.1l0,0l0,0h0.1l0,0l0,0h0.1l0,0h0.1h0.1h0.1l0,0l0,0h0.1l0,0h0.1H51l0,0l0,0h0.1l0,0h0.1l0,0l0,0h0.1
		h0.1h0.1l0,0h0.1h0.1h0.1l0,0h0.1H52l0,0h0.1l0,0h0.1l0,0h0.1l0,0h0.1l0,0h0.1l0,0h0.1l0,0h0.1h0.1l0,0h0.1H53l0,0l0,0h0.1l0,0h0.1
		l0,0l0,0h0.1h0.1l0,0h0.1l0,0h0.1l0,0h0.1l0,0l0,0l0,0l0,0l0,0l0,0h0.1l0,0l0,0l0,0l0,0l0,0l0,0l0,0l0,0l0,0h0.1l0,0l0,0l0,0H54
		l0,0l0,0l0,0l0,0l0,0l0,0l0,0l0,0l0,0l0,0l0,0l0,0l0,0l0,0l0,0l0,0h0.1l0,0l0,0l0,0l0,0l0,0l0,0l0,0l0,0l0,0l0,0l0,0l0,0l0,0l0,0
		h0.1l0,0l0,0l0,0l0,0l0,0l0,0l0,0l0,0l0,0h0.1l0,0h0.1l0,0l0,0l0,0l0,0l0,0l0,0l0,0l0,0l0,0h0.1l0,0l0,0l0,0l0,0l0,0l0,0h0.1l0,0
		h0.1l0,0h0.1l0,0h0.1H55l0,0h0.1l0,0l0,0h0.1l0,0c2.4,0.5,4.3,2.4,4.3,4.6C60,88.7,60,89,60,89.2z M85.6,86.4
		c-3,1.5-7.1,1.8-11.8,1.8c-4.4,0-8.3-0.3-11.2-1.6c-0.4-1.5-1.2-2.7-2.4-3.7c-0.7-0.6-1.4-1-2.2-1.4c-0.3-1-0.5-2.2-0.5-3.6
		c0-4.7,1.8-8.9,4.8-11.9c0.6-0.6,1.3-1.2,2-1.8l0,0l0.1-0.1l0,0l0,0l0,0l0,0l0,0l0,0l0,0l0,0l0,0l0.1-0.1l0,0l0,0l0,0l0,0l0,0l0,0
		l0,0l0,0l0,0l0.1-0.1h0.1h0.1h0.1H65l0,0l0.1-0.1h0.1l0.1-0.1h0.1h0.1h0.1h0.1h0.1l0,0h0.1l0,0H66h0.1h0.1h0.1h0.1h0.1h0.1h0.1h0.1
		l0,0l0,0h0.1H67h0.1h0.1h0.1l0,0h0.1l0,0h0.1h0.1l0,0l0,0h0.1h0.1l0,0l0,0h0.1c1.9-0.8,4.1-1.3,6.3-1.3c2.9,0,5.6,0.8,8,2.2l0,0
		l0,0l0.1,0.1l0,0l0,0h0.1l0,0l0,0l0,0h0.1l0,0l0,0l0,0l0.1,0.1l0,0l0,0l0,0l0.1,0.1l0,0l0.1,0.1l0,0l0,0l0,0l0,0l0,0l0,0l0,0l0,0
		l0,0l0,0l0,0l0,0l0,0l0,0l0,0l0.1,0.1l0,0l0,0l0,0l0,0H83l0,0l0,0l0,0l0,0l0,0l0,0l0,0l0,0l0,0l0,0l0,0l0.1,0.1l0,0l0,0l0,0
		l0.1,0.1l0,0l0,0l0,0l0,0l0,0l0,0l0,0l0,0l0,0l0,0c0.3,0.3,0.6,0.5,0.9,0.8c3,3,4.8,7.3,4.8,11.9c0,1.5-0.2,2.7-0.5,3.8
		c-0.6,0.3-1.2,0.7-1.7,1.1C86.9,83.9,86.1,85.1,85.6,86.4z M99.4,88.4L99.4,88.4L99.4,88.4L99.4,88.4L99.4,88.4L99.4,88.4
		c0,2.6-2.5,4.8-5.6,4.8s-5.6-2.1-5.6-4.7l0,0l0,0l0,0l0,0l0,0l0,0v-0.1l0,0l0,0l0,0l0,0v-0.1l0,0c0.1-2,1.6-3.6,3.7-4.3l0,0l0,0
		l0,0H92l0,0l0,0h0.1l0,0h0.1l0,0l0,0h0.1h0.1l0,0l0,0h0.1l0,0h0.1l0,0l0,0h0.1h0.1l0,0h0.1l0,0H93l0,0h0.1l0,0l0,0l0,0l0,0l0,0l0,0
		h0.1l0,0l0,0l0,0l0,0l0,0l0,0l0,0l0,0l0,0h0.1l0,0l0,0l0,0h0.1l0,0l0,0l0,0l0,0l0,0l0,0l0,0l0,0l0,0l0,0l0,0l0,0l0,0l0,0l0,0l0,0
		h0.1l0,0l0,0l0,0l0,0l0,0l0,0l0,0l0,0l0,0l0,0l0,0l0,0l0,0l0,0h0.1l0,0l0,0l0,0l0,0l0,0l0,0l0,0l0,0l0,0h0.1l0,0h0.1l0,0l0,0l0,0
		l0,0l0,0l0,0l0,0l0,0l0,0h0.1l0,0l0,0l0,0l0,0l0,0l0,0H94l0,0h0.1l0,0h0.1l0,0h0.1h0.1l0,0h0.1l0,0l0,0h0.1l0,0h0.1l0,0l0,0l0,0
		h0.1l0,0h0.1l0,0H95l0,0l0,0h0.1l0,0h0.1h0.1l0,0h0.1l0,0h0.1h0.1l0,0h0.1h0.1h0.1l0,0l0,0H96h0.1l0,0h0.1l0,0h0.1l0,0l0,0l0,0h0.1
		l0,0l0,0h0.1h0.1h0.1l0,0h0.1h0.1l0,0l0,0H97h0.1l0,0l0,0h0.1l0,0l0,0h0.1l0,0l0,0h0.1l0,0l0,0l0,0h0.1l0,0l0,0l0,0h0.1l0,0l0,0
		l0,0l0,0l0,0l0,0l0,0l0,0l0.1,0.1l0,0l0,0l0,0l0,0l0,0l0,0l0,0l0,0l0,0l0,0v0.1l0,0l0,0v0.1l0,0l0,0l0,0l0,0l0,0v0.1l0,0v0.1l0,0
		l0,0l0,0l0,0l0,0l0,0l0,0v0.1l0,0l0,0v0.1l0,0l0,0l0,0l0,0v0.1l0,0v0.1l0,0l0,0l0,0V85l0,0l0,0l0,0v0.1v0.1l0,0v0.1v0.1v0.1l0,0
		l0,0v0.1l0,0v0.1l0,0l0,0v0.1l0,0l0,0v0.1V86v0.1l0,0l0,0v0.1l0,0l0,0v0.1v0.1l0,0l0,0l0,0v0.1l0,0l0,0v0.1l0,0v0.1l0,0v0.1l0,0
		l0,0L99.4,88.4L99.4,88.4L99.4,88.4L99.4,88.4z"/>
	<path class="st2" d="M84.4,74c0,0-3,2.8-5.4,0.4c-0.3-0.3-0.9-0.3-1.3,0c-0.3,0.3-0.3,0.9,0,1.3c3.6,3.6,7.8-0.3,7.9-0.3
		c0.4-0.3,0.4-0.9,0.1-1.3C85.3,73.7,84.7,73.6,84.4,74z"/>
</g>
<g>
	<path class="st3" d="M333.1,81.8c0,2.9-2,4.9-5.8,4.9c-1,0-1.9,0-2.5-0.1v5.6c-0.3,0.1-0.7,0.1-1,0.1s-0.5,0-0.9-0.1V77.8
		c1.1-0.3,2.5-0.5,4.4-0.5C331.2,77.2,333.1,79.1,333.1,81.8z M331.1,81.8c0-1.8-1.3-3-4-3c-0.9,0-1.8,0.1-2.4,0.2V85
		c0.7,0.1,1.4,0.1,2.5,0.1C330,85.1,331.1,83.8,331.1,81.8z"/>
	<path class="st3" d="M334.6,86.8c0-3.3,2.4-5.7,5.7-5.7s5.5,2.5,5.5,5.7s-2.4,5.7-5.7,5.7C336.8,92.5,334.6,90.1,334.6,86.8z
		 M344,86.8c0-2.3-1.4-4.1-3.7-4.1c-2.3,0-3.7,1.6-3.7,4.1s1.4,4.1,3.7,4.1C342.6,90.8,344,89.2,344,86.8z"/>
	<path class="st3" d="M358.2,77.1v14.4c-1.1,0.6-2.9,1.1-4.5,1.1c-3.2,0-5.7-2-5.7-5.7c0-3.6,2.6-5.8,5.8-5.8c1.1,0,1.9,0.1,2.6,0.5
		v-4.5c0.3-0.1,0.6-0.1,0.9-0.1S357.8,77,358.2,77.1z M356.3,90.4v-6.9c-0.8-0.4-1.5-0.7-2.6-0.7c-2.3,0-3.8,1.5-3.8,4.1
		s1.5,4.1,3.8,4.1C354.5,91,355.4,90.7,356.3,90.4z"/>
	<path class="st3" d="M379.3,77.4v14.8c-0.3,0.1-0.6,0.1-0.9,0.1s-0.7,0-1-0.1v-6.7h-8v6.7c-0.3,0.1-0.7,0.1-1,0.1s-0.6,0-0.9-0.1
		V77.4c0.3-0.1,0.6-0.1,0.9-0.1s0.7,0,1,0.1v6.4h8v-6.4c0.3-0.1,0.7-0.1,1-0.1S379,77.4,379.3,77.4z"/>
	<path class="st3" d="M382.4,86.8c0-3.3,2.4-5.7,5.7-5.7c3.3,0,5.5,2.5,5.5,5.7s-2.4,5.7-5.7,5.7C384.6,92.5,382.4,90.1,382.4,86.8z
		 M391.7,86.8c0-2.3-1.4-4.1-3.7-4.1c-2.3,0-3.7,1.6-3.7,4.1s1.4,4.1,3.7,4.1C390.3,90.8,391.7,89.2,391.7,86.8z"/>
	<path class="st3" d="M403.7,91.4c-0.6,0.6-1.8,1.2-3.1,1.2c-2.2,0-3.7-1-3.7-3.6V83H395c-0.1-0.3-0.1-0.4-0.1-0.8
		c0-0.2,0-0.4,0.1-0.8h1.9v-3c0.3-0.1,0.5-0.1,0.9-0.1s0.5,0,0.9,0.1v3h4.3c0.1,0.2,0.1,0.4,0.1,0.8c0,0.3,0,0.4-0.1,0.8h-4.3v5.6
		c0,2,0.9,2.4,2.1,2.4c0.9,0,1.8-0.5,2.1-0.9C403.4,90.4,403.6,91,403.7,91.4z"/>
	<path class="st3" d="M415,87.3h-8c0.1,2,1.5,3.5,3.5,3.5c1.8,0,2.6-0.7,3.2-1.1c0.4,0.2,0.9,0.8,1,1.3c-0.9,0.8-2.2,1.5-4.3,1.5
		c-3.2,0-5.4-2.2-5.4-5.7c0-3.4,2.3-5.8,5.3-5.8c2.8,0,4.8,2,4.8,4.8C415,86.4,415,86.8,415,87.3z M413.2,85.8
		c0-1.4-0.8-3.1-2.9-3.1c-1.9,0-3.1,1.4-3.3,3.1H413.2z"/>
	<path class="st3" d="M417.8,92.3V77.1c0.3-0.1,0.7-0.1,0.9-0.1c0.3,0,0.7,0,1,0.1v15.2c-0.3,0.1-0.7,0.1-1,0.1
		C418.5,92.4,418.1,92.4,417.8,92.3z"/>
	<path class="st3" d="M422.4,91.3c0.2-0.6,0.6-1.1,1.1-1.3c0.5,0.4,1.3,1.1,3.2,1.1c2,0,2.8-0.8,2.8-1.7c0-0.9-0.7-1.4-2.8-1.8
		c-2.1-0.2-3.9-1-3.9-3.2c0-1.9,1.6-3.3,4.4-3.3c1.8,0,3.2,0.6,3.9,1.1c-0.1,0.5-0.3,1-0.8,1.4c-0.8-0.4-1.9-0.9-3.2-0.9
		c-1.6,0-2.3,0.6-2.3,1.4c0,0.9,0.4,1.3,2.4,1.6c2.6,0.3,4.2,1.2,4.2,3.3c0,2.2-1.8,3.6-4.5,3.6C424.2,92.6,422.9,91.7,422.4,91.3z"
		/>
</g>
</svg>
